<svg width="21" height="18" viewBox="0 0 21 18" fill="none" xmlns="http://www.w3.org/2000/svg">
<path d="M7.44476 3.32812H17.4582C18.8616 3.32812 20 4.4665 20 5.86989V13.9831C20 15.3865 18.8616 16.5248 17.4582 16.5248H3.54177C2.13837 16.5248 1 15.3865 1 13.9831V5.86989C1 4.55383 1.99984 3.47268 3.28277 3.34017C3.29783 3.34017 3.3159 3.33716 3.33096 3.33716" stroke="#001950" stroke-miterlimit="10"/>
<path d="M6.49931 1.56934H4.27075C3.75015 1.56934 3.32812 1.99136 3.32812 2.51196V13.2121C3.32812 13.7327 3.75015 14.1547 4.27075 14.1547H6.49931C7.0199 14.1547 7.44193 13.7327 7.44193 13.2121V2.51196C7.44193 1.99136 7.0199 1.56934 6.49931 1.56934Z" stroke="#001950" stroke-miterlimit="10"/>
<path d="M17.8887 3.32244V1.47522H8.9165V3.32244" stroke="#001950" stroke-miterlimit="10"/>
<path d="M10.7966 6.63024C10.7966 6.11713 10.3807 5.70117 9.86755 5.70117C9.35443 5.70117 8.93848 6.11713 8.93848 6.63024C8.93848 7.14335 9.35443 7.55931 9.86755 7.55931C10.3807 7.55931 10.7966 7.14335 10.7966 6.63024Z" stroke="#001950" stroke-miterlimit="10"/>
<path d="M14.2541 6.63024C14.2541 6.11713 13.8382 5.70117 13.3251 5.70117C12.812 5.70117 12.396 6.11713 12.396 6.63024C12.396 7.14335 12.812 7.55931 13.3251 7.55931C13.8382 7.55931 14.2541 7.14335 14.2541 6.63024Z" stroke="#001950" stroke-miterlimit="10"/>
<path d="M17.7112 6.63024C17.7112 6.11713 17.2952 5.70117 16.7821 5.70117C16.269 5.70117 15.853 6.11713 15.853 6.63024C15.853 7.14335 16.269 7.55931 16.7821 7.55931C17.2952 7.55931 17.7112 7.14335 17.7112 6.63024Z" stroke="#001950" stroke-miterlimit="10"/>
<path d="M10.7966 9.92797C10.7966 9.41486 10.3807 8.9989 9.86755 8.9989C9.35443 8.9989 8.93848 9.41486 8.93848 9.92797C8.93848 10.4411 9.35443 10.857 9.86755 10.857C10.3807 10.857 10.7966 10.4411 10.7966 9.92797Z" stroke="#001950" stroke-miterlimit="10"/>
<path d="M14.2541 9.92797C14.2541 9.41486 13.8382 8.9989 13.3251 8.9989C12.812 8.9989 12.396 9.41486 12.396 9.92797C12.396 10.4411 12.812 10.857 13.3251 10.857C13.8382 10.857 14.2541 10.4411 14.2541 9.92797Z" stroke="#001950" stroke-miterlimit="10"/>
<path d="M17.7112 9.92797C17.7112 9.41486 17.2952 8.9989 16.7821 8.9989C16.269 8.9989 15.853 9.41486 15.853 9.92797C15.853 10.4411 16.269 10.857 16.7821 10.857C17.2952 10.857 17.7112 10.4411 17.7112 9.92797Z" stroke="#001950" stroke-miterlimit="10"/>
<path d="M16.7806 12.2966H9.86905C9.35511 12.2966 8.93848 12.7126 8.93848 13.2257C8.93848 13.7388 9.35511 14.1548 9.86905 14.1548H16.7806C17.2945 14.1548 17.7112 13.7388 17.7112 13.2257C17.7112 12.7126 17.2945 12.2966 16.7806 12.2966Z" stroke="#001950" stroke-miterlimit="10"/>
</svg>
