<svg width="23" height="15" viewBox="0 0 23 15" fill="none" xmlns="http://www.w3.org/2000/svg">
<path d="M0.935547 8.247V6.75123C0.935547 3.69315 0.935547 2.16357 1.89153 1.18013C2.84857 0.195624 4.3549 0.15337 7.36651 0.0678073C8.79256 0.0276666 10.2503 -0.000854492 11.4989 -0.000854492C12.7475 -0.000854492 14.2042 0.0276666 15.6313 0.0678073C18.6429 0.15337 20.1492 0.195624 21.1052 1.18013C22.0612 2.16463 22.0622 3.6942 22.0622 6.75123V8.24594C22.0622 11.3051 22.0622 12.8336 21.1062 13.8181C20.1492 14.8016 18.6439 14.8449 15.6313 14.9294C14.2052 14.9706 12.7475 14.9991 11.4989 14.9991C10.2503 14.9991 8.79362 14.9706 7.36651 14.9294C4.3549 14.8449 2.84857 14.8026 1.89153 13.8181C0.93449 12.8336 0.935547 11.304 0.935547 8.247Z" fill="white"/>
<path d="M13.6122 7.49878L9.91504 9.61144V5.38611L13.6122 7.49878Z" fill="#273F74"/>
</svg>
