<svg width="15" height="19" viewBox="0 0 15 19" fill="none" xmlns="http://www.w3.org/2000/svg">
<path d="M7.49656 1.67651L8.83656 3.19651L10.7866 2.63651L11.0866 4.64651L13.0266 5.23651L12.1966 7.08651L13.5166 8.62651L11.8166 9.73651L12.0966 11.7465L10.0666 11.7565L9.20656 13.5965L7.49656 12.5165L5.77656 13.5965L4.92656 11.7565L2.89656 11.7465L3.17656 9.73651L1.47656 8.62651L2.78656 7.08651L1.95656 5.23651L3.90656 4.64651L4.20656 2.63651L6.15656 3.19651L7.49656 1.67651Z" stroke="#001950" stroke-miterlimit="10"/>
<path d="M2.93666 11.7666L0.626663 15.8566C0.526663 16.0266 0.676663 16.2266 0.866663 16.1966L3.26666 15.7566C3.37666 15.7366 3.48666 15.7966 3.52666 15.8966L4.38666 18.1766C4.45666 18.3566 4.70666 18.3766 4.79666 18.2066L7.88666 12.7566" stroke="#001950" stroke-miterlimit="10"/>
<path d="M12.0961 11.7466L14.3761 15.8566C14.4661 16.0266 14.3261 16.2266 14.1361 16.1866L11.7361 15.7466C11.6261 15.7266 11.5161 15.7866 11.4761 15.8866L10.6161 18.1666C10.5461 18.3466 10.2961 18.3666 10.2061 18.1966L7.49609 13.4066" stroke="#001950" stroke-miterlimit="10"/>
<path d="M7.49633 10.5166C9.02063 10.5166 10.2563 9.28089 10.2563 7.75658C10.2563 6.23228 9.02063 4.99658 7.49633 4.99658C5.97202 4.99658 4.73633 6.23228 4.73633 7.75658C4.73633 9.28089 5.97202 10.5166 7.49633 10.5166Z" stroke="#001950" stroke-miterlimit="10"/>
</svg>
