<svg width="22" height="20" viewBox="0 0 22 20" fill="none" xmlns="http://www.w3.org/2000/svg">
<path d="M2.6782 12.5421L1.36184 13.3021C0.945726 13.5423 0.803155 14.0744 1.0434 14.4905L3.1134 18.0758C3.35364 18.492 3.88573 18.6345 4.30184 18.3943L5.6182 17.6343C6.03431 17.394 6.17689 16.862 5.93664 16.4458L3.86664 12.8605C3.6264 12.4444 3.09431 12.3018 2.6782 12.5421Z" stroke="#001950" stroke-miterlimit="10"/>
<path d="M3.87012 12.8708L7.26012 11.1108C7.59012 10.9408 7.97012 10.8508 8.34012 10.8508H9.26012C9.50012 10.8508 9.73012 10.8908 9.96012 10.9608L14.1501 12.2608C14.5401 12.3808 14.8101 12.7508 14.8101 13.1608C14.8101 13.6608 14.4201 14.0708 13.9301 14.1008L10.5301 14.3208" stroke="#001950" stroke-miterlimit="10"/>
<path d="M10.5202 14.311L14.7602 14.071C15.1902 14.051 15.6202 13.921 15.9902 13.711L18.5302 12.291C18.9302 12.071 19.4302 12.151 19.7202 12.501C20.0802 12.921 20.0202 13.561 19.5702 13.891L17.9702 15.101C17.3402 15.581 16.6102 15.911 15.8402 16.071L14.4902 16.351C13.5902 16.541 12.6602 16.571 11.7402 16.451L9.43016 16.131C8.82016 16.051 8.19016 16.051 7.58016 16.161L5.91016 16.441" stroke="#001950" stroke-miterlimit="10"/>
<path d="M18.6696 9.3109C18.6696 4.8109 15.0196 1.1709 10.5296 1.1709C6.03965 1.1709 2.38965 4.8109 2.38965 9.3109" stroke="#001950" stroke-miterlimit="10"/>
<path d="M21.0001 6.97095L18.6701 9.31095L16.3301 6.97095" stroke="#001950" stroke-miterlimit="10"/>
<path d="M9.18993 7.44081C9.18993 8.13081 9.93993 8.68081 10.7999 8.54081C11.3199 8.45081 11.7499 8.10081 11.8399 7.66081C11.9999 6.96081 11.3799 6.35081 10.5799 6.32081C9.84993 6.30081 9.20993 5.84081 9.18993 5.23081C9.16993 4.62081 9.77993 4.08081 10.5299 4.08081C11.2799 4.08081 11.8699 4.58081 11.8699 5.20081" stroke="#001950" stroke-miterlimit="10"/>
<path d="M10.5195 4.07095V2.72095" stroke="#001950" stroke-miterlimit="10"/>
<path d="M10.5195 9.85079V8.56079" stroke="#001950" stroke-miterlimit="10"/>
</svg>
