<svg width="19" height="20" viewBox="0 0 19 20" fill="none" xmlns="http://www.w3.org/2000/svg">
<path d="M5.29707 3V6.99927M9.50012 3V6.99927M13.6981 3V6.99927M1.09912 8.20157H17.9011M1.09912 4.86464H17.9011V17H1.09912V4.86464ZM10.0351 10.3005L10.3306 11.2074C10.407 11.4366 10.621 11.5946 10.8656 11.5946H11.8183C12.3634 11.5946 12.5875 12.2925 12.1494 12.6135L11.375 13.1739C11.1763 13.3166 11.0948 13.5713 11.1712 13.8005L11.4667 14.7074C11.6348 15.227 11.0439 15.655 10.6006 15.334L9.82626 14.7736C9.62757 14.631 9.36265 14.631 9.16396 14.7736L8.38958 15.334C7.94635 15.655 7.35538 15.2219 7.5235 14.7074L7.81899 13.8005C7.89541 13.5713 7.81389 13.3166 7.6152 13.1739L6.84082 12.6135C6.39759 12.2925 6.62685 11.5946 7.17197 11.5946H8.12466C8.3692 11.5946 8.58318 11.4366 8.6596 11.2074L8.95508 10.3005C9.12321 9.78089 9.85683 9.78089 10.025 10.3005H10.0351Z" stroke="white" stroke-miterlimit="10"/>
</svg>
