<svg width="15" height="15" viewBox="0 0 15 15" fill="none" xmlns="http://www.w3.org/2000/svg">
<path d="M7.36166 10.3488C8.90867 10.3488 10.1628 9.09471 10.1628 7.5477C10.1628 6.00068 8.90867 4.74658 7.36166 4.74658C5.81465 4.74658 4.56055 6.00068 4.56055 7.5477C4.56055 9.09471 5.81465 10.3488 7.36166 10.3488Z" stroke="#001950" stroke-linecap="round" stroke-linejoin="round"/>
<path d="M10.7229 0.824951H4.00025C2.14384 0.824951 0.638916 2.32987 0.638916 4.18629V10.909C0.638916 12.7654 2.14384 14.2703 4.00025 14.2703H10.7229C12.5793 14.2703 14.0843 12.7654 14.0843 10.909V4.18629C14.0843 2.32987 12.5793 0.824951 10.7229 0.824951Z" stroke="#001950" stroke-linecap="round" stroke-linejoin="round"/>
<path d="M11.0037 4.60637C11.3905 4.60637 11.704 4.29284 11.704 3.90609C11.704 3.51934 11.3905 3.20581 11.0037 3.20581C10.617 3.20581 10.3035 3.51934 10.3035 3.90609C10.3035 4.29284 10.617 4.60637 11.0037 4.60637Z" fill="#001950"/>
</svg>
