<svg width="13" height="14" viewBox="0 0 13 14" fill="none" xmlns="http://www.w3.org/2000/svg">
<path d="M12.673 12.6737L9.13301 9.13365C9.9837 8.11239 10.4079 6.80248 10.3174 5.47642C10.2269 4.15036 9.6286 2.91024 8.64703 2.01405C7.66546 1.11786 6.37617 0.634593 5.04737 0.664786C3.71856 0.694979 2.45255 1.23631 1.5127 2.17616C0.572854 3.116 0.0315271 4.38201 0.00133414 5.71082C-0.0288588 7.03962 0.454407 8.32892 1.3506 9.31048C2.24679 10.2921 3.48691 10.8903 4.81297 10.9808C6.13903 11.0714 7.44894 10.6471 8.4702 9.79646L12.0102 13.3365L12.673 12.6737ZM0.954263 5.83646C0.954263 5.00207 1.20169 4.18642 1.66525 3.49265C2.12881 2.79888 2.78769 2.25816 3.55857 1.93885C4.32944 1.61954 5.17769 1.536 5.99605 1.69878C6.81441 1.86156 7.56612 2.26336 8.15612 2.85336C8.74612 3.44336 9.14792 4.19507 9.3107 5.01343C9.47348 5.83178 9.38994 6.68003 9.07063 7.45091C8.75132 8.22179 8.21059 8.88067 7.51682 9.34423C6.82305 9.80779 6.0074 10.0552 5.17301 10.0552C4.05451 10.054 2.98218 9.6091 2.19128 8.8182C1.40038 8.0273 0.955503 6.95497 0.954263 5.83646Z" fill="#001950"/>
</svg>
