<svg width="250" height="69" viewBox="0 0 250 69" fill="none" xmlns="http://www.w3.org/2000/svg">
<path d="M215.389 0.0112182L215.184 0.00446302C213.09 -0.0326906 211.016 0.16321 208.963 0.551634C200.75 2.10871 193.887 6.01659 188.581 12.4036C181.779 20.5943 179.34 30.0212 181.165 40.4343C182.548 48.3244 186.412 54.9411 192.554 60.1595C200.279 66.7222 209.291 69.4074 219.403 68.3097C225.74 67.6206 231.442 65.2597 236.495 61.4025C239.877 58.8186 242.702 55.7349 244.899 52.1006C244.947 52.0398 244.998 51.9823 245.039 51.9148C249.541 44.3625 251.01 36.2529 249.319 27.667C246.73 14.5518 236.843 4.3109 223.776 1.01774C221.029 0.325335 218.235 -0.0394458 215.392 0.00784062L215.389 0.0112182Z" fill="#FEFEFE"/>
<path d="M244.903 52.1006C242.706 55.7349 239.881 58.822 236.499 61.4025C231.449 65.2597 225.748 67.6206 219.407 68.3097C209.298 69.4074 200.286 66.7222 192.558 60.1595C186.416 54.9411 182.552 48.321 181.168 40.4343C179.344 30.0212 181.783 20.5943 188.585 12.4036C193.887 6.01659 200.754 2.10871 208.967 0.551634C211.017 0.16321 213.094 -0.0326906 215.188 0.00446302C215.15 0.0922806 215.119 0.183476 215.075 0.267916C212.274 5.56061 209.466 10.8499 206.674 16.1494C206.473 16.5311 206.217 16.5919 205.837 16.5919C199.377 16.5851 192.917 16.5851 186.453 16.5919C186.252 16.5919 186.037 16.5311 185.804 16.6695C185.9 16.8452 185.989 17.0141 186.084 17.1762C189.306 22.6817 192.521 28.1939 195.759 33.6893C196.022 34.1317 196.009 34.4391 195.753 34.8748C192.514 40.3701 189.296 45.879 186.078 51.3879C185.979 51.5568 185.729 51.7392 185.876 51.9317C185.951 52.033 186.238 51.9925 186.43 51.9925C192.89 51.9925 199.35 51.9992 205.814 51.9823C206.288 51.9823 206.531 52.1276 206.753 52.543C209.138 57.0318 211.543 61.5072 213.941 65.9859C214.364 66.7796 214.795 67.57 215.222 68.3637C215.461 68.259 215.488 68.0732 215.567 67.928C218.327 62.7873 221.084 57.6466 223.834 52.4991C224.012 52.1647 224.19 51.9823 224.624 51.9823C231.337 51.9992 238.053 51.9958 244.766 51.9992C244.81 52.033 244.851 52.0702 244.896 52.1039L244.903 52.1006Z" fill="#EB1C25"/>
<path d="M215.389 0.0111478C218.231 -0.032761 221.026 0.328642 223.772 1.02105C236.839 4.31421 246.726 14.5551 249.316 27.6703C251.01 36.2528 249.541 44.3658 245.035 51.9181C244.998 51.9823 244.943 52.0397 244.895 52.1039C244.851 52.0701 244.81 52.0329 244.765 51.9992C244.765 51.7695 244.605 51.6107 244.499 51.4317C241.253 45.8722 238.004 40.316 234.742 34.7667C234.527 34.3985 234.53 34.1452 234.742 33.7804C237.994 28.2479 241.233 22.7052 244.468 17.1626C244.567 16.9937 244.758 16.8485 244.687 16.585H244.038C237.598 16.585 231.158 16.5817 224.715 16.5952C224.295 16.5952 224.063 16.4905 223.861 16.102C221.897 12.3563 219.905 8.62403 217.927 4.88502C217.069 3.26378 216.229 1.63577 215.382 0.00777025L215.389 0.0111478Z" fill="#EB1C25"/>
<path d="M215.389 0.0111901C216.236 1.63582 217.076 3.2672 217.934 4.88844C219.912 8.62745 221.904 12.3597 223.868 16.1055C224.073 16.4939 224.302 16.5986 224.722 16.5986C231.162 16.5851 237.601 16.5885 244.044 16.5885H244.694C244.765 16.8519 244.574 16.9971 244.475 17.166C241.24 22.7087 238.001 28.2513 234.749 33.7838C234.534 34.1486 234.53 34.4019 234.749 34.7701C238.011 40.3195 241.26 45.8756 244.506 51.4351C244.612 51.6142 244.772 51.7729 244.772 52.0026C238.059 52.0026 231.343 52.0026 224.63 51.9857C224.196 51.9857 224.018 52.1681 223.841 52.5025C221.09 57.6499 218.33 62.7906 215.573 67.9313C215.495 68.0766 215.467 68.2657 215.228 68.3671C214.801 67.5733 214.371 66.783 213.947 65.9892C211.545 61.5105 209.14 57.0352 206.759 52.5464C206.537 52.1309 206.295 51.9823 205.82 51.9857C199.36 52.0026 192.899 51.9958 186.436 51.9958C186.244 51.9958 185.961 52.0364 185.882 51.935C185.739 51.7425 185.985 51.5601 186.084 51.3912C189.302 45.8824 192.52 40.3735 195.759 34.8782C196.015 34.4424 196.025 34.1385 195.766 33.6926C192.527 28.1973 189.309 22.685 186.091 17.1795C185.995 17.0174 185.906 16.8485 185.811 16.6729C186.039 16.5344 186.255 16.5952 186.46 16.5952C192.92 16.5918 199.38 16.5885 205.844 16.5952C206.223 16.5952 206.479 16.5378 206.681 16.1527C209.468 10.8533 212.276 5.56396 215.081 0.271265C215.126 0.186825 215.156 0.0956301 215.194 0.0078125C215.262 0.0078125 215.331 0.0111901 215.399 0.0145677L215.389 0.0111901ZM215.235 66.3135C215.474 66.1649 215.525 65.9487 215.621 65.7697C218.176 61.0073 220.732 56.2482 223.273 51.4791C223.461 51.1278 223.67 50.9994 224.076 50.9994C230.185 51.013 236.293 51.0096 242.405 51.0062C242.61 51.0062 242.825 51.0602 243.064 50.9386C242.972 50.7664 242.89 50.5975 242.798 50.4354C239.747 45.217 236.699 39.9952 233.632 34.787C233.406 34.4019 233.413 34.1351 233.638 33.7534C236.713 28.5249 239.771 23.2862 242.828 18.0476C242.917 17.8956 243.105 17.7672 243.006 17.5308H242.36C236.269 17.5308 230.181 17.5308 224.09 17.5342C223.742 17.5342 223.499 17.5004 223.304 17.1289C221.19 13.096 219.051 9.07329 216.919 5.05057C216.39 4.0508 215.853 3.05779 215.286 1.99722C215.18 2.17623 215.122 2.2708 215.071 2.36875C212.475 7.25952 209.871 12.1503 207.296 17.0512C207.091 17.443 206.862 17.5376 206.445 17.5376C200.337 17.524 194.228 17.5274 188.117 17.5342C187.918 17.5342 187.696 17.4464 187.498 17.6254C187.573 17.7672 187.642 17.9023 187.72 18.0341C190.774 23.2525 193.822 28.4742 196.893 33.6825C197.156 34.1317 197.139 34.4424 196.883 34.8782C193.832 40.0526 190.802 45.2406 187.768 50.4252C187.426 51.0096 187.426 51.0129 188.093 51.0129C194.184 51.0129 200.272 51.0197 206.363 50.9994C206.858 50.9994 207.114 51.1413 207.347 51.577C209.359 55.3802 211.398 59.1699 213.428 62.9629C214.026 64.0775 214.627 65.1921 215.235 66.3169V66.3135Z" fill="#273F74"/>
<path d="M215.235 66.3135C214.627 65.1888 214.025 64.0775 213.428 62.9595C211.395 59.1665 209.355 55.3768 207.347 51.5737C207.114 51.138 206.862 50.9927 206.363 50.9961C200.275 51.0164 194.184 51.0096 188.092 51.0096C187.43 51.0096 187.426 51.0096 187.768 50.4219C190.802 45.2373 193.832 40.0493 196.883 34.8748C197.139 34.4391 197.156 34.1284 196.893 33.6791C193.822 28.4709 190.774 23.2491 187.72 18.0307C187.645 17.899 187.577 17.7639 187.498 17.622C187.696 17.443 187.918 17.5308 188.116 17.5308C194.225 17.5241 200.333 17.5207 206.445 17.5342C206.862 17.5342 207.087 17.4397 207.295 17.0479C209.871 12.147 212.474 7.25619 215.071 2.36543C215.122 2.26748 215.18 2.17291 215.286 1.9939C215.853 3.05446 216.39 4.05085 216.919 5.04725C219.051 9.06997 221.189 13.0927 223.304 17.1255C223.499 17.4971 223.741 17.5308 224.09 17.5308C230.181 17.5241 236.269 17.5275 242.36 17.5275H243.006C243.105 17.7639 242.917 17.8923 242.828 18.0442C239.771 23.2829 236.713 28.5216 233.638 33.7501C233.413 34.1317 233.406 34.3986 233.632 34.7836C236.699 39.9919 239.747 45.2136 242.797 50.432C242.893 50.5942 242.975 50.763 243.064 50.9353C242.825 51.0569 242.61 51.0029 242.405 51.0029C236.296 51.0062 230.188 51.0096 224.076 50.9961C223.67 50.9961 223.461 51.1244 223.273 51.4757C220.732 56.2449 218.176 61.0073 215.621 65.7663C215.525 65.9454 215.471 66.1649 215.235 66.3101V66.3135ZM219.604 43.0959C220.106 42.417 220.619 41.8563 220.978 41.2078C221.463 40.3263 222.18 39.8703 223.103 39.4954C227.588 37.6782 229.713 34.1723 229.348 29.4065C229.307 28.8526 229.125 28.6938 228.575 28.758C226.676 28.9742 225.019 29.7172 223.574 30.9399C223.048 31.3858 222.535 31.8519 221.985 32.3382C221.832 31.4398 221.425 30.6967 221.005 29.957C220.786 29.572 220.622 29.1599 220.424 28.7614C220.308 28.5283 220.349 28.3425 220.486 28.1196C222.539 24.7015 222.778 21.253 220.708 17.7301C218.938 14.7173 216.786 11.9511 215.057 8.84704C214.357 10.0596 213.68 11.2215 213.011 12.3868C211.453 15.099 210.657 17.997 210.917 21.1314C210.954 21.5975 210.698 21.4826 210.469 21.4489C209.27 21.2665 208.102 21.3982 206.94 21.7191C206.575 21.8204 206.431 21.9825 206.54 22.3777C206.79 23.2964 207.131 24.1678 207.661 24.9649C208.488 26.2113 209.595 27.1773 210.76 28.0892C210.978 28.2615 211.152 28.4168 211.146 28.7411C211.122 29.7442 211.125 30.7474 211.146 31.7505C211.152 32.0849 211.06 32.1896 210.715 32.1221C209.465 31.8721 208.235 32.1018 207.002 32.2876C206.503 32.3619 206.462 32.5713 206.554 32.9766C206.862 34.3445 207.521 35.5267 208.464 36.567C209.26 37.4452 210.182 38.1916 211.046 38.9989C211.207 39.1475 211.337 39.2758 211.299 39.5325C211.146 40.5627 211.074 41.603 211.118 42.6467C211.135 43.0655 210.954 43.1094 210.606 43.106C209.181 43.0925 207.757 43.1195 206.332 43.0891C205.785 43.0756 205.71 43.2107 205.919 43.6937C206.421 44.8489 207.176 45.8655 207.692 47.0105C207.801 47.2537 208.013 47.1963 208.194 47.1997C208.894 47.1997 209.598 47.1693 210.298 47.1828C211.067 47.1963 211.132 47.2706 211.094 48.0171C210.985 50.1348 210.869 52.2492 210.763 54.3669C210.753 54.5899 210.66 54.8499 210.876 55.0222C212.126 56.0186 213.069 57.3257 214.312 58.3289C214.859 58.7702 215.37 58.7567 215.846 58.2883C216.574 57.5757 217.483 57.1095 218.282 56.4948C219.044 55.9139 219.649 55.2248 219.819 54.2521C219.994 53.249 219.85 52.2559 219.69 51.2629C219.492 50.0436 219.341 48.8209 219.628 47.5881C219.697 47.2909 219.823 47.176 220.141 47.1862C220.94 47.2064 221.739 47.1828 222.542 47.1997C222.812 47.2064 222.959 47.1186 223.079 46.8721C223.441 46.1256 223.84 45.3994 224.223 44.6631C224.476 44.1733 224.773 43.7005 224.937 43.0993H219.615L219.604 43.0959Z" fill="#FEFEFE"/>
<path d="M219.604 43.096H224.927C224.763 43.6938 224.465 44.1701 224.213 44.6598C223.83 45.3961 223.434 46.1257 223.068 46.8688C222.949 47.1153 222.802 47.2032 222.532 47.1964C221.732 47.1795 220.933 47.2032 220.13 47.1829C219.816 47.1761 219.69 47.2876 219.618 47.5848C219.331 48.8177 219.481 50.0403 219.679 51.2597C219.84 52.2527 219.983 53.2457 219.809 54.2488C219.642 55.2182 219.034 55.9072 218.272 56.4916C217.469 57.1029 216.56 57.5724 215.836 58.2851C215.358 58.7534 214.846 58.7669 214.302 58.3256C213.062 57.3225 212.116 56.0153 210.865 55.0189C210.65 54.8467 210.739 54.5832 210.753 54.3637C210.858 52.2459 210.975 50.1315 211.084 48.0138C211.121 47.2673 211.057 47.1897 210.288 47.1795C209.588 47.1694 208.884 47.1998 208.183 47.1964C208.002 47.1964 207.791 47.2538 207.681 47.0073C207.165 45.8623 206.41 44.8456 205.908 43.6905C205.696 43.2075 205.775 43.0757 206.322 43.0859C207.746 43.1163 209.171 43.0859 210.595 43.1028C210.944 43.1061 211.125 43.0622 211.108 42.6434C211.063 41.6031 211.139 40.5628 211.289 39.5293C211.326 39.2726 211.197 39.1476 211.036 38.9956C210.172 38.1883 209.249 37.4419 208.453 36.5637C207.514 35.5234 206.855 34.3446 206.544 32.9733C206.451 32.568 206.492 32.3586 206.991 32.2843C208.228 32.0985 209.454 31.8689 210.705 32.1188C211.05 32.1897 211.142 32.0816 211.135 31.7473C211.118 30.7441 211.115 29.741 211.135 28.7378C211.142 28.4102 210.968 28.2548 210.749 28.0859C209.584 27.1706 208.477 26.2046 207.651 24.9617C207.121 24.1645 206.783 23.2897 206.53 22.3744C206.421 21.9792 206.568 21.8171 206.93 21.7158C208.088 21.3949 209.26 21.2632 210.459 21.4456C210.691 21.4794 210.947 21.5942 210.906 21.1281C210.647 17.9937 211.443 15.0957 213 12.3835C213.67 11.2182 214.343 10.0563 215.047 8.84375C216.775 11.9444 218.928 14.714 220.697 17.7268C222.768 21.2497 222.528 24.6982 220.475 28.1163C220.342 28.3393 220.298 28.525 220.414 28.7581C220.612 29.1533 220.776 29.5687 220.995 29.9538C221.415 30.6935 221.821 31.4365 221.975 32.335C222.525 31.8486 223.034 31.3825 223.564 30.9366C225.009 29.7173 226.666 28.9709 228.565 28.7547C229.115 28.6905 229.296 28.8527 229.337 29.4032C229.703 34.169 227.578 37.675 223.092 39.4921C222.17 39.867 221.452 40.323 220.967 41.2045C220.612 41.853 220.096 42.4137 219.594 43.0926L219.604 43.096ZM208.754 24.2287C208.713 24.1274 208.641 24.1409 208.566 24.1814C208.6 24.2253 208.634 24.2726 208.669 24.3165C210.865 27.3057 214.118 28.7243 216.769 28.1501C216.758 28.1332 216.752 28.1096 216.738 28.1028C214.924 27.2686 213.202 26.262 211.422 25.3636C210.561 24.9279 209.707 24.4652 208.757 24.2287H208.754ZM208.897 34.7398C208.856 34.7263 208.785 34.6925 208.778 34.7027C208.737 34.7601 208.781 34.7871 208.833 34.8006C209.967 36.8947 211.764 38.1343 214.053 38.7153C214.944 38.9416 215.856 39.0327 216.929 38.8639C216.509 38.6376 216.222 38.4822 215.935 38.3302C213.605 37.1008 211.285 35.8544 208.897 34.7398ZM222.436 38.597C222.511 38.5869 222.593 38.597 222.658 38.5666C224.503 37.6648 226.006 36.3948 227.011 34.598C227.585 33.5644 227.902 32.4599 227.94 31.1663C227.444 31.8249 227.031 32.3991 226.594 32.9531C225.425 34.446 224.097 35.8139 223.051 37.4014C222.805 37.7763 222.474 38.1242 222.446 38.6105C222.423 38.6173 222.395 38.6207 222.371 38.6274L222.395 38.6713C222.409 38.6477 222.423 38.6241 222.44 38.6004L222.436 38.597ZM217.172 37.675C217.196 37.6986 217.216 37.7222 217.24 37.7459C217.243 37.7256 217.257 37.7053 217.25 37.6918C217.226 37.6378 217.196 37.6378 217.165 37.6885C217.288 37.4689 217.103 37.3271 217.018 37.1751C216.28 35.8477 215.19 34.8817 213.814 34.2433C212.355 33.5678 210.817 33.3347 209.075 33.5441C211.053 34.4764 212.836 35.4559 214.637 36.405C215.474 36.8474 216.28 37.3507 217.175 37.6783L217.172 37.675ZM218.993 46.0041C219.403 46.0041 219.813 46.0345 220.219 45.9974C220.967 45.9332 221.691 45.7846 222.211 45.1698C222.337 45.0212 222.522 44.8422 222.467 44.6733C222.395 44.4504 222.125 44.5686 221.948 44.5686C217.537 44.5619 213.13 44.5619 208.72 44.5619C208.604 44.5619 208.484 44.5619 208.368 44.5619C208.228 44.5619 208.163 44.6092 208.163 44.7645C208.163 45.261 208.781 45.8893 209.284 45.896C212.522 45.9332 215.761 45.7913 218.996 46.0041H218.993ZM215.997 13.1232V13.7717C215.997 16.6021 216.061 19.4325 215.966 22.2596C215.925 23.4046 216.495 24.0261 217.278 24.6273C217.401 24.7219 217.548 24.8333 217.701 24.7759C217.91 24.6982 217.848 24.4888 217.852 24.3233C217.865 22.8608 217.893 21.3983 217.886 19.9358C217.879 18.2808 217.838 16.6224 217.278 15.0349C217.028 14.329 216.683 13.6771 216 13.1232H215.997ZM214.326 13.0455C213.824 13.6095 213.53 14.1567 213.301 14.741C212.549 16.6697 212.567 18.6895 212.529 20.7126C212.509 21.7158 212.857 22.2326 213.841 22.3778C214.042 22.4082 214.234 22.523 214.5 22.6244C214.391 19.4427 214.756 16.3015 214.329 13.0421L214.326 13.0455ZM219.321 40.8769C219.669 40.5797 219.806 40.2791 219.949 39.9886C220.732 38.3944 221.005 36.6921 220.96 34.9425C220.926 33.6049 220.711 32.2978 219.973 31.1292C219.819 30.8826 219.662 30.636 219.344 30.457C219.529 33.9495 218.808 37.3642 219.321 40.8803V40.8769ZM217.872 32.3721C217.872 31.4669 217.855 30.5617 217.879 29.6599C217.889 29.2647 217.718 29.2141 217.387 29.2512C216.412 29.3661 215.905 29.9042 215.867 30.8657C215.867 30.886 215.86 30.9029 215.86 30.9231C215.867 32.1391 215.949 33.3449 216.461 34.4764C216.639 34.8682 216.857 35.2363 217.308 35.3748C217.667 35.4863 217.896 35.4525 217.879 34.9695C217.845 34.1048 217.869 33.2368 217.869 32.3721H217.872ZM217.083 27.0862C215.764 23.6951 211.552 22.317 209.15 22.9283C211.801 24.3165 214.394 25.6743 217.083 27.0862ZM222.508 36.28C223.051 35.5403 223.529 34.8479 224.056 34.1926C224.985 33.0308 225.948 31.8925 226.891 30.7407C226.997 30.6124 227.158 30.4469 227.069 30.2881C226.98 30.1328 226.785 30.2105 226.652 30.3016C225.637 30.9805 224.544 31.5412 223.646 32.3856C222.528 33.4394 222.16 34.7094 222.505 36.28H222.508ZM219.522 26.6944C221.196 24.6475 220.79 19.7838 219.351 18.9124C219.461 21.4827 219.054 24.0632 219.522 26.6944ZM214.493 33.3685C214.493 32.3012 214.493 31.3453 214.493 30.3861C214.493 29.4268 214.493 29.4066 213.55 29.2005C213.363 29.16 213.178 29.0958 212.997 29.0283C212.731 28.927 212.611 28.9675 212.618 29.2884C212.635 30.251 212.625 31.2102 212.621 32.1728C212.621 32.3113 212.618 32.4397 212.768 32.514C213.318 32.7842 213.865 33.0578 214.493 33.3685ZM212.621 41.3802C212.621 41.495 212.621 41.6099 212.621 41.7281C212.621 43.2412 212.621 43.2311 214.145 43.1467C214.435 43.1298 214.504 43.0352 214.5 42.7718C214.487 41.9645 214.5 41.1539 214.493 40.3433C214.493 40.2082 214.569 40.0291 214.333 39.9717C213.899 39.8704 213.468 39.7454 213.035 39.6407C212.748 39.5732 212.604 39.6644 212.621 39.992C212.645 40.4547 212.628 40.9174 212.628 41.3802H212.621ZM217.872 41.5997C217.872 41.5052 217.872 41.4072 217.872 41.3126C217.872 39.7657 217.872 39.7758 216.314 40.0967C216.038 40.1541 215.973 40.2622 215.976 40.5121C215.986 41.262 215.993 42.0118 215.976 42.7616C215.966 43.0757 216.089 43.1365 216.379 43.1433C217.875 43.1872 217.875 43.1973 217.875 41.7146C217.875 41.6774 217.875 41.6369 217.875 41.5997H217.872ZM217.852 48.0982C217.097 48.4664 216.314 48.6116 215.546 48.8041C214.774 48.9967 213.984 49.1554 213.298 49.5877C212.847 49.8715 212.539 50.2396 212.632 50.8476C213.359 50.4051 214.148 50.2092 214.948 50.0268C215.628 49.8715 216.324 49.7397 216.95 49.4121C217.469 49.1419 217.875 48.7839 217.852 48.0948V48.0982ZM212.273 53.0802C213.438 52.5026 214.678 52.3101 215.856 51.9217C216.526 51.6988 217.172 51.4319 217.684 50.9354C217.834 50.7902 218.135 50.6314 217.954 50.3781C217.804 50.1687 217.565 50.3511 217.37 50.4254C216.844 50.6247 216.314 50.8138 215.792 51.0232C214.941 51.3677 214.036 51.5197 213.168 51.7933C212.444 52.023 212.245 52.3236 212.276 53.0802H212.273ZM212.621 54.5427C213.069 54.8433 213.468 54.894 213.878 54.8568C215.443 54.7183 216.748 53.9347 218.07 53.1916C218.275 53.0768 218.265 52.9147 218.169 52.7492C218.043 52.5364 217.875 52.4823 217.633 52.6107C216.892 52.9991 216.092 53.2558 215.3 53.5193C214.415 53.8131 213.523 54.0766 212.625 54.5427H212.621ZM216.198 47.1728C215.098 47.1728 213.995 47.1728 212.895 47.1728C212.748 47.1728 212.621 47.193 212.621 47.3856C212.625 47.676 212.625 47.9631 212.621 48.2536C212.621 48.409 212.7 48.4664 212.836 48.4225C213.967 48.0509 215.142 47.7976 216.198 47.1761V47.1728ZM216.789 55.073C216.157 55.4276 215.426 55.5053 214.804 55.8464C214.613 55.9512 214.241 55.9984 214.384 56.343C214.51 56.6402 214.787 56.8091 215.139 56.7618C215.419 56.7246 215.645 56.5726 215.846 56.3902C216.249 56.0255 216.581 55.6066 216.789 55.0764V55.073Z" fill="#273F74"/>
<path d="M218.993 46.0039C215.758 45.7911 212.519 45.933 209.281 45.8958C208.779 45.8891 208.16 45.2608 208.16 44.7643C208.16 44.6123 208.228 44.5617 208.365 44.5617C208.481 44.5617 208.601 44.5617 208.717 44.5617C213.127 44.5617 217.534 44.5617 221.945 44.5684C222.122 44.5684 222.389 44.4502 222.464 44.6731C222.519 44.842 222.334 45.021 222.208 45.1696C221.689 45.7844 220.964 45.933 220.216 45.9972C219.81 46.0309 219.4 46.0039 218.99 46.0039H218.993Z" fill="#FEFEFE"/>
<path d="M215.997 13.123C216.68 13.6804 217.025 14.3289 217.275 15.0348C217.839 16.6222 217.876 18.2806 217.883 19.9357C217.89 21.3982 217.862 22.8607 217.849 24.3232C217.849 24.4887 217.907 24.6981 217.698 24.7758C217.545 24.8332 217.398 24.7217 217.275 24.6272C216.493 24.0259 215.922 23.4045 215.963 22.2595C216.062 19.4324 215.994 16.602 215.994 13.7715V13.123H215.997Z" fill="#FEFEFE"/>
<path d="M214.327 13.0454C214.754 16.3048 214.388 19.446 214.497 22.6277C214.231 22.5263 214.043 22.4115 213.838 22.3811C212.854 22.2359 212.506 21.7191 212.526 20.7159C212.567 18.6894 212.547 16.673 213.298 14.7443C213.527 14.1566 213.821 13.6095 214.323 13.0488L214.327 13.0454Z" fill="#FEFEFE"/>
<path d="M219.321 40.8769C218.812 37.3608 219.529 33.9461 219.345 30.4536C219.662 30.636 219.816 30.8826 219.973 31.1258C220.711 32.291 220.926 33.6015 220.961 34.9391C221.005 36.6887 220.732 38.391 219.949 39.9852C219.806 40.2757 219.669 40.5763 219.321 40.8735V40.8769Z" fill="#FEFEFE"/>
<path d="M217.872 32.3719C217.872 33.2366 217.848 34.1046 217.882 34.9693C217.899 35.4523 217.67 35.4827 217.312 35.3746C216.861 35.2361 216.642 34.868 216.465 34.4762C215.952 33.3447 215.87 32.1389 215.863 30.9229C215.863 30.9027 215.867 30.8858 215.87 30.8655C215.907 29.904 216.413 29.3659 217.39 29.251C217.718 29.2105 217.893 29.2645 217.882 29.6597C217.855 30.5649 217.875 31.4667 217.875 32.3719H217.872Z" fill="#FEFEFE"/>
<path d="M217.172 37.6748C216.277 37.3506 215.471 36.8439 214.634 36.4015C212.834 35.4524 211.05 34.4695 209.072 33.5406C210.815 33.3312 212.352 33.5643 213.811 34.2398C215.187 34.8782 216.277 35.8442 217.015 37.1716C217.101 37.3236 217.285 37.4654 217.162 37.685L217.172 37.6714V37.6748Z" fill="#FEFEFE"/>
<path d="M217.083 27.086C214.391 25.6775 211.801 24.3197 209.15 22.9281C211.552 22.3168 215.764 23.6915 217.083 27.086Z" fill="#FEFEFE"/>
<path d="M222.447 38.6105C222.474 38.1241 222.805 37.7762 223.051 37.4013C224.097 35.8138 225.422 34.4459 226.594 32.953C227.031 32.3957 227.445 31.8215 227.94 31.1663C227.903 32.4565 227.585 33.5644 227.011 34.5979C226.007 36.3982 224.503 37.6681 222.659 38.5666C222.594 38.597 222.512 38.5902 222.437 38.597L222.447 38.6105Z" fill="#FEFEFE"/>
<path d="M208.901 34.7363C211.289 35.8509 213.608 37.1006 215.938 38.3267C216.225 38.4787 216.512 38.6341 216.933 38.8604C215.86 39.0293 214.948 38.9381 214.056 38.7118C211.767 38.1342 209.97 36.8912 208.836 34.7971C208.856 34.7769 208.88 34.7566 208.901 34.7363Z" fill="#FEFEFE"/>
<path d="M208.755 24.2285C209.705 24.4649 210.555 24.9277 211.42 25.3634C213.199 26.2618 214.925 27.2684 216.735 28.1026C216.749 28.1094 216.756 28.133 216.766 28.1499C214.115 28.7241 210.863 27.3055 208.666 24.3163C208.693 24.2859 208.724 24.2589 208.751 24.2285H208.755Z" fill="#FEFEFE"/>
<path d="M222.508 36.2798C222.16 34.7126 222.529 33.4392 223.649 32.3854C224.544 31.541 225.641 30.9803 226.656 30.3014C226.789 30.2136 226.984 30.1359 227.072 30.2879C227.161 30.4467 227.001 30.6088 226.895 30.7405C225.952 31.8923 224.989 33.0305 224.059 34.1924C223.533 34.8477 223.058 35.5435 222.512 36.2798H222.508Z" fill="#FEFEFE"/>
<path d="M219.523 26.6943C219.055 24.0632 219.462 21.4827 219.352 18.9124C220.787 19.7838 221.194 24.6475 219.523 26.6943Z" fill="#FEFEFE"/>
<path d="M214.494 33.3684C213.865 33.0577 213.319 32.7841 212.769 32.5139C212.618 32.4396 212.622 32.3079 212.622 32.1728C212.622 31.2101 212.632 30.2509 212.618 29.2883C212.612 28.9674 212.735 28.9269 212.998 29.0282C213.179 29.0958 213.363 29.1599 213.551 29.2005C214.494 29.4065 214.494 29.4065 214.494 30.386C214.494 31.3655 214.494 32.3011 214.494 33.3684Z" fill="#FEFEFE"/>
<path d="M212.621 41.38C212.621 40.9172 212.639 40.4545 212.615 39.9918C212.598 39.6641 212.741 39.5729 213.028 39.6405C213.462 39.7452 213.892 39.8668 214.326 39.9715C214.562 40.0289 214.487 40.2046 214.487 40.343C214.494 41.1503 214.483 41.9609 214.494 42.7715C214.497 43.035 214.429 43.1296 214.138 43.1464C212.615 43.2309 212.615 43.241 212.615 41.7278C212.615 41.613 212.615 41.4982 212.615 41.38H212.621Z" fill="#FEFEFE"/>
<path d="M217.873 41.5996C217.873 41.6368 217.873 41.6773 217.873 41.7144C217.873 43.1972 217.873 43.1871 216.376 43.1432C216.083 43.133 215.963 43.0756 215.973 42.7615C215.994 42.0117 215.987 41.2618 215.973 40.512C215.97 40.2621 216.031 40.154 216.311 40.0966C217.873 39.7757 217.869 39.7656 217.869 41.3125C217.869 41.4071 217.869 41.505 217.869 41.5996H217.873Z" fill="#FEFEFE"/>
<path d="M217.852 48.0981C217.876 48.7838 217.469 49.1452 216.95 49.4154C216.325 49.743 215.628 49.8714 214.948 50.0301C214.148 50.2125 213.359 50.4084 212.632 50.8509C212.539 50.2429 212.847 49.8748 213.298 49.591C213.984 49.1587 214.774 49 215.546 48.8074C216.314 48.6149 217.097 48.4697 217.852 48.1015V48.0981Z" fill="#FEFEFE"/>
<path d="M212.273 53.08C212.246 52.3234 212.44 52.0228 213.165 51.7931C214.032 51.5161 214.938 51.3642 215.788 51.023C216.311 50.8136 216.841 50.6245 217.367 50.4252C217.561 50.3509 217.8 50.1685 217.951 50.3779C218.132 50.6312 217.831 50.79 217.681 50.9352C217.168 51.4283 216.523 51.6985 215.853 51.9215C214.675 52.3133 213.434 52.5024 212.27 53.08H212.273Z" fill="#FEFEFE"/>
<path d="M212.622 54.5425C213.52 54.0764 214.412 53.8096 215.297 53.5191C216.089 53.2557 216.889 52.999 217.63 52.6106C217.872 52.4822 218.04 52.5362 218.166 52.749C218.265 52.9145 218.272 53.0767 218.067 53.1915C216.745 53.9346 215.44 54.7182 213.875 54.8567C213.469 54.8938 213.066 54.8465 212.618 54.5425H212.622Z" fill="#FEFEFE"/>
<path d="M216.198 47.1726C215.142 47.794 213.971 48.0474 212.836 48.4189C212.696 48.4628 212.618 48.4054 212.621 48.25C212.621 47.9596 212.621 47.6725 212.621 47.382C212.621 47.1895 212.744 47.1692 212.894 47.1692C213.995 47.1692 215.098 47.1692 216.198 47.1692V47.1726Z" fill="#FEFEFE"/>
<path d="M216.789 55.073C216.581 55.6032 216.249 56.0221 215.846 56.3868C215.645 56.5692 215.419 56.7212 215.139 56.7584C214.787 56.8057 214.507 56.6368 214.384 56.3396C214.237 55.995 214.61 55.9478 214.804 55.8431C215.426 55.5019 216.157 55.4242 216.789 55.0696V55.073Z" fill="#FEFEFE"/>
<path d="M208.666 24.3163C208.632 24.2724 208.598 24.2251 208.563 24.1812C208.642 24.1407 208.71 24.1272 208.751 24.2285C208.724 24.2589 208.693 24.2859 208.666 24.3163Z" fill="#FEFEFE"/>
<path d="M208.836 34.8005C208.785 34.7836 208.741 34.7566 208.782 34.7026C208.789 34.6924 208.86 34.7262 208.901 34.7397C208.881 34.76 208.857 34.7802 208.836 34.8005Z" fill="#FEFEFE"/>
<path d="M222.436 38.5969C222.422 38.6205 222.409 38.6442 222.392 38.6678L222.368 38.6239C222.392 38.6171 222.419 38.6138 222.443 38.607L222.432 38.5935L222.436 38.5969Z" fill="#FEFEFE"/>
<path d="M217.162 37.6884C217.192 37.6411 217.226 37.6411 217.246 37.6918C217.253 37.7053 217.239 37.7289 217.236 37.7458C217.212 37.7222 217.192 37.6985 217.168 37.6749L217.158 37.6884H217.162Z" fill="#FEFEFE"/>
<path fill-rule="evenodd" clip-rule="evenodd" d="M3.13127 31.4869H7.44945L12.6866 17.48H4.23814V14.0112H0.00195312V20.9488H7.07024L3.13127 31.4869ZM14.5211 23.455H16.6802L18.8393 17.48H15.546L14.5211 23.455ZM19.4611 23.455H21.6202L23.7793 17.48H20.486L19.4611 23.455ZM35.1931 31.4869V20.9488H26.3688V17.48H39.5113V31.4869H35.1931ZM26.3688 31.4869V23.9346H30.687V31.4869H26.3688ZM53.2754 24.9749C54.5702 24.4683 55.1646 23.401 55.4072 22.0938C55.5645 21.273 55.7219 20.4608 55.8793 19.6485C56.0191 18.9265 56.159 18.2046 56.2988 17.4767H52.1412L51.3042 22.0398C51.2222 22.4958 50.9797 22.9484 50.4399 22.9484L46.9041 17.48H41.9129L49.1998 28.0181H42.2921V31.4869H55.9743L52.008 25.2958C52.1498 25.2602 52.289 25.2304 52.4274 25.2009C52.7089 25.1407 52.9868 25.0814 53.2754 24.9749ZM66.9611 25.2418V20.9454H64.6687V17.4767H71.2792V25.2418H66.9611ZM73.8414 31.4869H79.5637V31.4903C82.7477 31.4903 85.122 28.5552 85.122 25.539V23.4314C85.122 20.4152 82.7477 17.48 79.5637 17.48H73.8414V20.9488H78.1869C79.5364 20.9488 80.8038 22.4958 80.8038 23.7759V25.1911C80.8038 26.4712 79.5364 28.0181 78.1869 28.0181H73.8414V31.4869ZM87.0146 31.4869V28.0181H90.5231V20.9488H87.4212V17.48H94.8413V31.4869H87.0146ZM106.31 20.9488V34.77H110.628V17.48H104.017V20.9488H106.31ZM115.353 31.4869V20.9488H113.06V17.48H119.671V31.4869H115.353ZM127.279 27.6702L127.631 31.4869V31.4836H131.491L130.951 17.4767H123.313V20.9454H126.903C126.93 21.6919 126.958 22.4654 126.958 23.2118C126.958 25.6944 124.638 27.2413 122.37 27.5622V31.8855C124.85 31.8314 126.148 29.6461 127.091 27.6702H127.279ZM140.695 31.4869V22.6038C140.695 21.4825 140.046 20.9488 138.942 20.9488H133.732V17.48H139.615C142.881 17.48 145.013 19.4289 145.013 22.6815V31.4869H140.695ZM153.567 24.8972L157.967 31.4869H162.822L158.476 25.4309C160.256 24.9513 161.281 23.911 161.66 22.0972C161.81 21.3155 161.967 20.5415 162.124 19.7678L162.124 19.7672L162.124 19.7665L162.124 19.7657L162.124 19.7647L162.125 19.7636C162.279 19.0044 162.432 18.2455 162.579 17.48H158.422L157.612 22.0432C157.557 22.3877 157.315 22.9754 156.857 22.9754H156.802L152.375 17.48H147.384L151.784 22.4687C149.977 22.9484 148.682 24.6845 148.412 26.4712C148.291 27.3122 148.17 28.1457 148.048 28.9791L148.048 28.9835C147.927 29.8154 147.805 30.6474 147.684 31.4869H151.842C152.057 29.8049 152.272 28.1532 152.515 26.4712C152.597 25.9105 152.918 25.056 153.567 24.8972ZM3.76317 54.9782V45.0987H1.76465V43.4505H5.7617V54.9782H3.76317ZM8.64845 53.3299V54.9748H13.1135V43.4471H8.89443V45.0954H11.115V53.3299H8.64845ZM20.0862 54.9782H17.9749L22.0608 45.0987H15.4434V40.2249H17.442V43.4538H24.7938L20.0862 54.9816V54.9782ZM32.986 54.9816C37.1607 54.9816 38.8723 51.1379 39.2276 47.5813V47.5846L39.6478 43.4572H37.6937L37.294 47.6725C37.0275 50.5265 35.8045 53.3367 32.4736 53.3367H29.785L29.4502 50.3712H30.2735C32.1866 50.3712 33.4951 49.0978 33.7171 47.2334C33.8624 46.0779 33.9873 44.9022 34.1106 43.741L34.1106 43.7406L34.1407 43.4572H32.1866L32.1609 43.7128C32.0569 44.7488 31.951 45.8022 31.7869 46.8382C31.6298 47.7603 31.3633 49.0539 30.1642 49.0539H29.2999L28.5654 43.4538H26.6113L28.0563 54.9816H32.986ZM49.3739 58.4909V45.0987H47.3754V43.4505H51.3724V58.4909H49.3739ZM55.882 45.0987V54.9782H57.8805V43.4505H53.8834V45.0987H55.882ZM69.1405 54.9782V47.6894C69.1405 45.9769 68.1635 45.0987 66.4519 45.0987H63.2099V54.9782H61.2113V43.4505H66.6535C69.2294 43.4505 71.1391 44.8116 71.1391 47.4901V54.9782H69.1405ZM75.1805 54.9782H78.5558L78.5524 54.9748C82.5973 54.9748 85.016 51.5736 85.016 47.8177C85.016 45.2474 83.4172 43.1836 80.7081 43.1836C80.1307 43.1836 79.2425 43.3154 78.754 43.6666V45.3791C79.1093 44.8961 80.1751 44.7644 80.6876 44.7644C82.3308 44.7644 83.0414 46.4126 83.0414 47.8177C83.0414 50.7157 81.5109 53.3299 78.2894 53.3299H77.0014L76.0244 43.4505H74.0258L75.1805 54.9782ZM88.791 49.6652V45.0987H86.7925V43.4505H90.7895V49.6652H88.791ZM93.4542 53.3299V54.9748H103.003V53.3266H101.359V43.4471H93.4542V45.0954H99.361V53.3299H93.4542ZM113.197 54.9782V45.0987H105.312V43.4505H115.195V54.9782H113.197ZM105.49 54.9782V48.0406H107.488V54.9782H105.49ZM133.626 45.0987V54.9782L133.63 54.9748H135.628V43.4471H123.726V45.0954H125.991V52.4957C125.991 52.9787 125.636 53.3299 125.147 53.3299H123.524V54.9782H125.39C126.896 54.9782 127.986 53.992 127.986 52.4754V45.0987H133.626ZM151.234 47.5813C150.878 51.1379 149.17 54.9816 144.992 54.9816H140.062L138.617 43.4538H140.572L141.306 49.0539H142.174C143.373 49.0539 143.639 47.7603 143.796 46.8382C143.961 45.8024 144.066 44.7493 144.17 43.7135L144.17 43.7127L144.196 43.4572H146.15L146.116 43.7811C145.994 44.9292 145.871 46.0912 145.73 47.2334C145.508 49.0978 144.196 50.3712 142.286 50.3712H141.467L141.798 53.3367H144.487C147.817 53.3367 149.04 50.5265 149.307 47.6725L149.707 43.4572H151.661L151.237 47.5846L151.234 47.5813ZM160.027 54.9748V54.9782L160.024 54.9748H160.027ZM160.027 54.9748H162.022V47.686C162.022 44.8995 160.335 43.4505 157.537 43.4505H153.54V45.0987H157.339C158.982 45.0987 160.027 45.933 160.027 47.6015V54.9748Z" fill="#273F74"/>
</svg>
