<svg width="250" height="69" viewBox="0 0 250 69" fill="none" xmlns="http://www.w3.org/2000/svg">
<path d="M215.388 0.0112182L215.183 0.00446302C213.089 -0.0326906 211.016 0.16321 208.962 0.551634C200.75 2.10871 193.886 6.01659 188.581 12.4036C181.779 20.5943 179.34 30.0212 181.164 40.4343C182.548 48.3244 186.411 54.9411 192.554 60.1595C200.278 66.7222 209.29 69.4074 219.402 68.3097C225.74 67.6206 231.441 65.2597 236.494 61.4025C239.876 58.8186 242.702 55.7349 244.898 52.1006C244.946 52.0398 244.997 51.9823 245.038 51.9148C249.541 44.3625 251.01 36.2529 249.319 27.667C246.729 14.5518 236.843 4.3109 223.775 1.01774C221.029 0.325335 218.234 -0.0394458 215.392 0.00784062L215.388 0.0112182Z" fill="#FEFEFE"/>
<path d="M244.902 52.1006C242.705 55.7349 239.88 58.822 236.498 61.4025C231.449 65.2597 225.747 67.6206 219.406 68.3097C209.298 69.4074 200.285 66.7222 192.558 60.1595C186.415 54.9411 182.552 48.321 181.168 40.4343C179.344 30.0212 181.783 20.5943 188.585 12.4036C193.887 6.01659 200.754 2.10871 208.966 0.551634C211.016 0.16321 213.093 -0.0326906 215.187 0.00446302C215.15 0.0922806 215.119 0.183476 215.075 0.267916C212.273 5.56061 209.465 10.8499 206.674 16.1494C206.472 16.5311 206.216 16.5919 205.837 16.5919C199.377 16.5851 192.917 16.5851 186.453 16.5919C186.251 16.5919 186.036 16.5311 185.804 16.6695C185.9 16.8452 185.988 17.0141 186.084 17.1762C189.306 22.6817 192.52 28.1939 195.759 33.6893C196.022 34.1317 196.008 34.4391 195.752 34.8748C192.513 40.3701 189.295 45.879 186.077 51.3879C185.978 51.5568 185.729 51.7392 185.876 51.9317C185.951 52.033 186.238 51.9925 186.429 51.9925C192.889 51.9925 199.349 51.9992 205.813 51.9823C206.288 51.9823 206.53 52.1276 206.753 52.543C209.137 57.0318 211.542 61.5072 213.94 65.9859C214.364 66.7796 214.794 67.57 215.221 68.3637C215.461 68.259 215.488 68.0732 215.567 67.928C218.327 62.7873 221.084 57.6466 223.834 52.4991C224.012 52.1647 224.189 51.9823 224.623 51.9823C231.336 51.9992 238.053 51.9958 244.765 51.9992C244.81 52.033 244.851 52.0702 244.895 52.1039L244.902 52.1006Z" fill="#EB1C25"/>
<path d="M215.388 0.0111478C218.231 -0.032761 221.025 0.328642 223.772 1.02105C236.839 4.31421 246.726 14.5551 249.315 27.6703C251.01 36.2528 249.541 44.3658 245.035 51.9181C244.997 51.9823 244.942 52.0397 244.895 52.1039C244.85 52.0701 244.809 52.0329 244.765 51.9992C244.765 51.7695 244.604 51.6107 244.498 51.4317C241.253 45.8722 238.004 40.316 234.741 34.7667C234.526 34.3985 234.53 34.1452 234.741 33.7804C237.994 28.2479 241.232 22.7052 244.468 17.1626C244.567 16.9937 244.758 16.8485 244.686 16.585H244.037C237.597 16.585 231.158 16.5817 224.715 16.5952C224.294 16.5952 224.062 16.4905 223.861 16.102C221.896 12.3563 219.905 8.62403 217.926 4.88502C217.069 3.26378 216.229 1.63577 215.381 0.00777025L215.388 0.0111478Z" fill="#EB1C25"/>
<path d="M215.388 0.0111901C216.235 1.63582 217.076 3.2672 217.933 4.88844C219.911 8.62745 221.903 12.3597 223.867 16.1055C224.072 16.4939 224.301 16.5986 224.722 16.5986C231.161 16.5851 237.601 16.5885 244.044 16.5885H244.693C244.765 16.8519 244.574 16.9971 244.474 17.166C241.239 22.7087 238.001 28.2513 234.748 33.7838C234.533 34.1486 234.53 34.4019 234.748 34.7701C238.011 40.3195 241.26 45.8756 244.505 51.4351C244.611 51.6142 244.772 51.7729 244.772 52.0026C238.059 52.0026 231.342 52.0026 224.629 51.9857C224.195 51.9857 224.018 52.1681 223.84 52.5025C221.09 57.6499 218.33 62.7906 215.573 67.9313C215.494 68.0766 215.467 68.2657 215.228 68.3671C214.801 67.5733 214.37 66.783 213.947 65.9892C211.545 61.5105 209.14 57.0352 206.759 52.5464C206.537 52.1309 206.294 51.9823 205.819 51.9857C199.359 52.0026 192.899 51.9958 186.435 51.9958C186.244 51.9958 185.96 52.0364 185.882 51.935C185.738 51.7425 185.984 51.5601 186.083 51.3912C189.301 45.8824 192.52 40.3735 195.758 34.8782C196.014 34.4424 196.025 34.1385 195.765 33.6926C192.526 28.1973 189.308 22.685 186.09 17.1795C185.995 17.0174 185.906 16.8485 185.81 16.6729C186.039 16.5344 186.254 16.5952 186.459 16.5952C192.919 16.5918 199.38 16.5885 205.843 16.5952C206.222 16.5952 206.479 16.5378 206.68 16.1527C209.468 10.8533 212.276 5.56396 215.081 0.271265C215.125 0.186825 215.156 0.0956301 215.194 0.0078125C215.262 0.0078125 215.33 0.0111901 215.398 0.0145677L215.388 0.0111901ZM215.234 66.3135C215.474 66.1649 215.525 65.9487 215.621 65.7697C218.176 61.0073 220.731 56.2482 223.273 51.4791C223.461 51.1278 223.669 50.9994 224.076 50.9994C230.184 51.013 236.292 51.0096 242.404 51.0062C242.609 51.0062 242.824 51.0602 243.064 50.9386C242.971 50.7664 242.889 50.5975 242.797 50.4354C239.746 45.217 236.699 39.9952 233.631 34.787C233.406 34.4019 233.413 34.1351 233.638 33.7534C236.713 28.5249 239.77 23.2862 242.828 18.0476C242.917 17.8956 243.105 17.7672 243.005 17.5308H242.36C236.269 17.5308 230.181 17.5308 224.089 17.5342C223.741 17.5342 223.498 17.5004 223.304 17.1289C221.189 13.096 219.05 9.07329 216.919 5.05057C216.389 4.0508 215.853 3.05779 215.286 1.99722C215.18 2.17623 215.122 2.2708 215.071 2.36875C212.474 7.25952 209.871 12.1503 207.295 17.0512C207.09 17.443 206.861 17.5376 206.444 17.5376C200.336 17.524 194.228 17.5274 188.116 17.5342C187.918 17.5342 187.696 17.4464 187.498 17.6254C187.573 17.7672 187.641 17.9023 187.72 18.0341C190.774 23.2525 193.821 28.4742 196.892 33.6825C197.156 34.1317 197.138 34.4424 196.882 34.8782C193.831 40.0526 190.801 45.2406 187.768 50.4252C187.426 51.0096 187.426 51.0129 188.092 51.0129C194.183 51.0129 200.271 51.0197 206.362 50.9994C206.858 50.9994 207.114 51.1413 207.346 51.577C209.358 55.3802 211.398 59.1699 213.427 62.9629C214.025 64.0775 214.626 65.1921 215.234 66.3169V66.3135Z" fill="#273F74"/>
<path d="M215.234 66.3135C214.626 65.1888 214.025 64.0775 213.427 62.9595C211.394 59.1665 209.355 55.3768 207.346 51.5737C207.114 51.138 206.861 50.9927 206.362 50.9961C200.274 51.0164 194.183 51.0096 188.092 51.0096C187.429 51.0096 187.426 51.0096 187.767 50.4219C190.801 45.2373 193.831 40.0493 196.882 34.8748C197.138 34.4391 197.155 34.1284 196.892 33.6791C193.821 28.4709 190.774 23.2491 187.72 18.0307C187.644 17.899 187.576 17.7639 187.498 17.622C187.696 17.443 187.918 17.5308 188.116 17.5308C194.224 17.5241 200.333 17.5207 206.444 17.5342C206.861 17.5342 207.087 17.4397 207.295 17.0479C209.871 12.147 212.474 7.25619 215.07 2.36543C215.122 2.26748 215.18 2.17291 215.286 1.9939C215.853 3.05446 216.389 4.05085 216.919 5.04725C219.05 9.06997 221.189 13.0927 223.304 17.1255C223.498 17.4971 223.741 17.5308 224.089 17.5308C230.181 17.5241 236.268 17.5275 242.36 17.5275H243.005C243.104 17.7639 242.916 17.8923 242.828 18.0442C239.77 23.2829 236.713 28.5216 233.638 33.7501C233.412 34.1317 233.406 34.3986 233.631 34.7836C236.699 39.9919 239.746 45.2136 242.797 50.432C242.893 50.5942 242.975 50.763 243.063 50.9353C242.824 51.0569 242.609 51.0029 242.404 51.0029C236.296 51.0062 230.187 51.0096 224.076 50.9961C223.669 50.9961 223.461 51.1244 223.273 51.4757C220.731 56.2449 218.176 61.0073 215.62 65.7663C215.525 65.9454 215.47 66.1649 215.234 66.3101V66.3135ZM219.604 43.0959C220.106 42.417 220.618 41.8563 220.977 41.2078C221.462 40.3263 222.18 39.8703 223.102 39.4954C227.588 37.6782 229.713 34.1723 229.347 29.4065C229.306 28.8526 229.125 28.6938 228.575 28.758C226.675 28.9742 225.019 29.7172 223.573 30.9399C223.047 31.3858 222.535 31.8519 221.985 32.3382C221.831 31.4398 221.425 30.6967 221.004 29.957C220.786 29.572 220.622 29.1599 220.424 28.7614C220.308 28.5283 220.349 28.3425 220.485 28.1196C222.538 24.7015 222.777 21.253 220.707 17.7301C218.938 14.7173 216.785 11.9511 215.057 8.84704C214.356 10.0596 213.68 11.2215 213.01 12.3868C211.453 15.099 210.657 17.997 210.916 21.1314C210.954 21.5975 210.698 21.4826 210.469 21.4489C209.27 21.2665 208.101 21.3982 206.94 21.7191C206.574 21.8204 206.431 21.9825 206.54 22.3777C206.789 23.2964 207.131 24.1678 207.66 24.9649C208.487 26.2113 209.594 27.1773 210.759 28.0892C210.978 28.2615 211.152 28.4168 211.145 28.7411C211.121 29.7442 211.125 30.7474 211.145 31.7505C211.152 32.0849 211.06 32.1896 210.715 32.1221C209.464 31.8721 208.234 32.1018 207.001 32.2876C206.502 32.3619 206.461 32.5713 206.554 32.9766C206.861 34.3445 207.52 35.5267 208.463 36.567C209.259 37.4452 210.182 38.1916 211.046 38.9989C211.207 39.1475 211.336 39.2758 211.299 39.5325C211.145 40.5627 211.073 41.603 211.118 42.6467C211.135 43.0655 210.954 43.1094 210.605 43.106C209.181 43.0925 207.756 43.1195 206.332 43.0891C205.785 43.0756 205.71 43.2107 205.918 43.6937C206.42 44.8489 207.175 45.8655 207.691 47.0105C207.801 47.2537 208.012 47.1963 208.193 47.1997C208.894 47.1997 209.597 47.1693 210.298 47.1828C211.066 47.1963 211.131 47.2706 211.094 48.0171C210.985 50.1348 210.868 52.2492 210.762 54.3669C210.752 54.5899 210.66 54.8499 210.875 55.0222C212.126 56.0186 213.068 57.3257 214.312 58.3289C214.859 58.7702 215.37 58.7567 215.846 58.2883C216.574 57.5757 217.482 57.1095 218.282 56.4948C219.044 55.9139 219.648 55.2248 219.819 54.2521C219.993 53.249 219.85 52.2559 219.689 51.2629C219.491 50.0436 219.341 48.8209 219.628 47.5881C219.696 47.2909 219.822 47.176 220.14 47.1862C220.94 47.2064 221.739 47.1828 222.542 47.1997C222.812 47.2064 222.959 47.1186 223.078 46.8721C223.44 46.1256 223.84 45.3994 224.223 44.6631C224.475 44.1733 224.773 43.7005 224.937 43.0993H219.614L219.604 43.0959Z" fill="#FEFEFE"/>
<path d="M219.604 43.096H224.927C224.763 43.6938 224.465 44.1701 224.213 44.6598C223.83 45.3961 223.434 46.1257 223.068 46.8688C222.949 47.1153 222.802 47.2032 222.532 47.1964C221.732 47.1795 220.933 47.2032 220.13 47.1829C219.816 47.1761 219.69 47.2876 219.618 47.5848C219.331 48.8177 219.481 50.0403 219.679 51.2597C219.84 52.2527 219.983 53.2457 219.809 54.2488C219.642 55.2182 219.034 55.9072 218.272 56.4916C217.469 57.1029 216.56 57.5724 215.836 58.2851C215.358 58.7534 214.846 58.7669 214.302 58.3256C213.062 57.3225 212.116 56.0153 210.865 55.0189C210.65 54.8467 210.739 54.5832 210.753 54.3637C210.858 52.2459 210.975 50.1315 211.084 48.0138C211.121 47.2673 211.057 47.1897 210.288 47.1795C209.588 47.1694 208.884 47.1998 208.183 47.1964C208.002 47.1964 207.791 47.2538 207.681 47.0073C207.165 45.8623 206.41 44.8456 205.908 43.6905C205.696 43.2075 205.775 43.0757 206.322 43.0859C207.746 43.1163 209.171 43.0859 210.595 43.1028C210.944 43.1061 211.125 43.0622 211.108 42.6434C211.063 41.6031 211.139 40.5628 211.289 39.5293C211.326 39.2726 211.197 39.1476 211.036 38.9956C210.172 38.1883 209.249 37.4419 208.453 36.5637C207.514 35.5234 206.855 34.3446 206.544 32.9733C206.451 32.568 206.492 32.3586 206.991 32.2843C208.228 32.0985 209.454 31.8689 210.705 32.1188C211.05 32.1897 211.142 32.0816 211.135 31.7473C211.118 30.7441 211.115 29.741 211.135 28.7378C211.142 28.4102 210.968 28.2548 210.749 28.0859C209.584 27.1706 208.477 26.2046 207.651 24.9617C207.121 24.1645 206.783 23.2897 206.53 22.3744C206.421 21.9792 206.568 21.8171 206.93 21.7158C208.088 21.3949 209.26 21.2632 210.459 21.4456C210.691 21.4794 210.947 21.5942 210.906 21.1281C210.647 17.9937 211.443 15.0957 213 12.3835C213.67 11.2182 214.343 10.0563 215.047 8.84375C216.775 11.9444 218.928 14.714 220.697 17.7268C222.768 21.2497 222.528 24.6982 220.475 28.1163C220.342 28.3393 220.298 28.525 220.414 28.7581C220.612 29.1533 220.776 29.5687 220.995 29.9538C221.415 30.6935 221.821 31.4365 221.975 32.335C222.525 31.8486 223.034 31.3825 223.564 30.9366C225.009 29.7173 226.666 28.9709 228.565 28.7547C229.115 28.6905 229.296 28.8527 229.337 29.4032C229.703 34.169 227.578 37.675 223.092 39.4921C222.17 39.867 221.452 40.323 220.967 41.2045C220.612 41.853 220.096 42.4137 219.594 43.0926L219.604 43.096ZM208.754 24.2287C208.713 24.1274 208.641 24.1409 208.566 24.1814C208.6 24.2253 208.634 24.2726 208.669 24.3165C210.865 27.3057 214.118 28.7243 216.769 28.1501C216.758 28.1332 216.752 28.1096 216.738 28.1028C214.924 27.2686 213.202 26.262 211.422 25.3636C210.561 24.9279 209.707 24.4652 208.757 24.2287H208.754ZM208.897 34.7398C208.856 34.7263 208.785 34.6925 208.778 34.7027C208.737 34.7601 208.781 34.7871 208.833 34.8006C209.967 36.8947 211.764 38.1343 214.053 38.7153C214.944 38.9416 215.856 39.0327 216.929 38.8639C216.509 38.6376 216.222 38.4822 215.935 38.3302C213.605 37.1008 211.285 35.8544 208.897 34.7398ZM222.436 38.597C222.511 38.5869 222.593 38.597 222.658 38.5666C224.503 37.6648 226.006 36.3948 227.011 34.598C227.585 33.5644 227.902 32.4599 227.94 31.1663C227.444 31.8249 227.031 32.3991 226.594 32.9531C225.425 34.446 224.097 35.8139 223.051 37.4014C222.805 37.7763 222.474 38.1242 222.446 38.6105C222.423 38.6173 222.395 38.6207 222.371 38.6274L222.395 38.6713C222.409 38.6477 222.423 38.6241 222.44 38.6004L222.436 38.597ZM217.172 37.675C217.196 37.6986 217.216 37.7222 217.24 37.7459C217.243 37.7256 217.257 37.7053 217.25 37.6918C217.226 37.6378 217.196 37.6378 217.165 37.6885C217.288 37.4689 217.103 37.3271 217.018 37.1751C216.28 35.8477 215.19 34.8817 213.814 34.2433C212.355 33.5678 210.817 33.3347 209.075 33.5441C211.053 34.4764 212.836 35.4559 214.637 36.405C215.474 36.8474 216.28 37.3507 217.175 37.6783L217.172 37.675ZM218.993 46.0041C219.403 46.0041 219.813 46.0345 220.219 45.9974C220.967 45.9332 221.691 45.7846 222.211 45.1698C222.337 45.0212 222.522 44.8422 222.467 44.6733C222.395 44.4504 222.125 44.5686 221.948 44.5686C217.537 44.5619 213.13 44.5619 208.72 44.5619C208.604 44.5619 208.484 44.5619 208.368 44.5619C208.228 44.5619 208.163 44.6092 208.163 44.7645C208.163 45.261 208.781 45.8893 209.284 45.896C212.522 45.9332 215.761 45.7913 218.996 46.0041H218.993ZM215.997 13.1232V13.7717C215.997 16.6021 216.061 19.4325 215.966 22.2596C215.925 23.4046 216.495 24.0261 217.278 24.6273C217.401 24.7219 217.548 24.8333 217.701 24.7759C217.91 24.6982 217.848 24.4888 217.852 24.3233C217.865 22.8608 217.893 21.3983 217.886 19.9358C217.879 18.2808 217.838 16.6224 217.278 15.0349C217.028 14.329 216.683 13.6771 216 13.1232H215.997ZM214.326 13.0455C213.824 13.6095 213.53 14.1567 213.301 14.741C212.549 16.6697 212.567 18.6895 212.529 20.7126C212.509 21.7158 212.857 22.2326 213.841 22.3778C214.042 22.4082 214.234 22.523 214.5 22.6244C214.391 19.4427 214.756 16.3015 214.329 13.0421L214.326 13.0455ZM219.321 40.8769C219.669 40.5797 219.806 40.2791 219.949 39.9886C220.732 38.3944 221.005 36.6921 220.96 34.9425C220.926 33.6049 220.711 32.2978 219.973 31.1292C219.819 30.8826 219.662 30.636 219.344 30.457C219.529 33.9495 218.808 37.3642 219.321 40.8803V40.8769ZM217.872 32.3721C217.872 31.4669 217.855 30.5617 217.879 29.6599C217.889 29.2647 217.718 29.2141 217.387 29.2512C216.412 29.3661 215.905 29.9042 215.867 30.8657C215.867 30.886 215.86 30.9029 215.86 30.9231C215.867 32.1391 215.949 33.3449 216.461 34.4764C216.639 34.8682 216.857 35.2363 217.308 35.3748C217.667 35.4863 217.896 35.4525 217.879 34.9695C217.845 34.1048 217.869 33.2368 217.869 32.3721H217.872ZM217.083 27.0862C215.764 23.6951 211.552 22.317 209.15 22.9283C211.801 24.3165 214.394 25.6743 217.083 27.0862ZM222.508 36.28C223.051 35.5403 223.529 34.8479 224.056 34.1926C224.985 33.0308 225.948 31.8925 226.891 30.7407C226.997 30.6124 227.158 30.4469 227.069 30.2881C226.98 30.1328 226.785 30.2105 226.652 30.3016C225.637 30.9805 224.544 31.5412 223.646 32.3856C222.528 33.4394 222.16 34.7094 222.505 36.28H222.508ZM219.522 26.6944C221.196 24.6475 220.79 19.7838 219.351 18.9124C219.461 21.4827 219.054 24.0632 219.522 26.6944ZM214.493 33.3685C214.493 32.3012 214.493 31.3453 214.493 30.3861C214.493 29.4268 214.493 29.4066 213.55 29.2005C213.363 29.16 213.178 29.0958 212.997 29.0283C212.731 28.927 212.611 28.9675 212.618 29.2884C212.635 30.251 212.625 31.2102 212.621 32.1728C212.621 32.3113 212.618 32.4397 212.768 32.514C213.318 32.7842 213.865 33.0578 214.493 33.3685ZM212.621 41.3802C212.621 41.495 212.621 41.6099 212.621 41.7281C212.621 43.2412 212.621 43.2311 214.145 43.1467C214.435 43.1298 214.504 43.0352 214.5 42.7718C214.487 41.9645 214.5 41.1539 214.493 40.3433C214.493 40.2082 214.569 40.0291 214.333 39.9717C213.899 39.8704 213.468 39.7454 213.035 39.6407C212.748 39.5732 212.604 39.6644 212.621 39.992C212.645 40.4547 212.628 40.9174 212.628 41.3802H212.621ZM217.872 41.5997C217.872 41.5052 217.872 41.4072 217.872 41.3126C217.872 39.7657 217.872 39.7758 216.314 40.0967C216.038 40.1541 215.973 40.2622 215.976 40.5121C215.986 41.262 215.993 42.0118 215.976 42.7616C215.966 43.0757 216.089 43.1365 216.379 43.1433C217.875 43.1872 217.875 43.1973 217.875 41.7146C217.875 41.6774 217.875 41.6369 217.875 41.5997H217.872ZM217.852 48.0982C217.097 48.4664 216.314 48.6116 215.546 48.8041C214.774 48.9967 213.984 49.1554 213.298 49.5877C212.847 49.8715 212.539 50.2396 212.632 50.8476C213.359 50.4051 214.148 50.2092 214.948 50.0268C215.628 49.8715 216.324 49.7397 216.95 49.4121C217.469 49.1419 217.875 48.7839 217.852 48.0948V48.0982ZM212.273 53.0802C213.438 52.5026 214.678 52.3101 215.856 51.9217C216.526 51.6988 217.172 51.4319 217.684 50.9354C217.834 50.7902 218.135 50.6314 217.954 50.3781C217.804 50.1687 217.565 50.3511 217.37 50.4254C216.844 50.6247 216.314 50.8138 215.792 51.0232C214.941 51.3677 214.036 51.5197 213.168 51.7933C212.444 52.023 212.245 52.3236 212.276 53.0802H212.273ZM212.621 54.5427C213.069 54.8433 213.468 54.894 213.878 54.8568C215.443 54.7183 216.748 53.9347 218.07 53.1916C218.275 53.0768 218.265 52.9147 218.169 52.7492C218.043 52.5364 217.875 52.4823 217.633 52.6107C216.892 52.9991 216.092 53.2558 215.3 53.5193C214.415 53.8131 213.523 54.0766 212.625 54.5427H212.621ZM216.198 47.1728C215.098 47.1728 213.995 47.1728 212.895 47.1728C212.748 47.1728 212.621 47.193 212.621 47.3856C212.625 47.676 212.625 47.9631 212.621 48.2536C212.621 48.409 212.7 48.4664 212.836 48.4225C213.967 48.0509 215.142 47.7976 216.198 47.1761V47.1728ZM216.789 55.073C216.157 55.4276 215.426 55.5053 214.804 55.8464C214.613 55.9512 214.241 55.9984 214.384 56.343C214.51 56.6402 214.787 56.8091 215.139 56.7618C215.419 56.7246 215.645 56.5726 215.846 56.3902C216.249 56.0255 216.581 55.6066 216.789 55.0764V55.073Z" fill="#273F74"/>
<path d="M218.992 46.0039C215.757 45.7911 212.519 45.9329 209.28 45.8958C208.778 45.889 208.16 45.2608 208.16 44.7643C208.16 44.6123 208.228 44.5617 208.365 44.5617C208.481 44.5617 208.6 44.5617 208.717 44.5617C213.127 44.5617 217.534 44.5617 221.944 44.5684C222.122 44.5684 222.388 44.4502 222.463 44.6731C222.518 44.842 222.333 45.021 222.207 45.1696C221.688 45.7843 220.964 45.9329 220.215 45.9971C219.809 46.0309 219.399 46.0039 218.989 46.0039H218.992Z" fill="#FEFEFE"/>
<path d="M215.997 13.123C216.68 13.6803 217.025 14.3288 217.274 15.0347C217.838 16.6222 217.876 18.2805 217.882 19.9355C217.889 21.398 217.862 22.8604 217.848 24.3229C217.848 24.4884 217.906 24.6978 217.698 24.7755C217.544 24.8329 217.397 24.7214 217.274 24.6269C216.492 24.0257 215.922 23.4042 215.963 22.2592C216.062 19.4322 215.993 16.6019 215.993 13.7715V13.123H215.997Z" fill="#FEFEFE"/>
<path d="M214.326 13.0454C214.753 16.3047 214.388 19.4458 214.497 22.6274C214.23 22.5261 214.043 22.4113 213.838 22.3809C212.854 22.2356 212.505 21.7189 212.526 20.7157C212.567 18.6892 212.546 16.6729 213.298 14.7443C213.527 14.1566 213.82 13.6095 214.323 13.0488L214.326 13.0454Z" fill="#FEFEFE"/>
<path d="M219.321 40.8766C218.812 37.3606 219.529 33.946 219.345 30.4536C219.662 30.636 219.816 30.8826 219.973 31.1257C220.711 32.291 220.926 33.6015 220.961 34.939C221.005 36.6885 220.732 38.3908 219.949 39.985C219.806 40.2754 219.669 40.576 219.321 40.8732V40.8766Z" fill="#FEFEFE"/>
<path d="M217.872 32.3718C217.872 33.2365 217.848 34.1045 217.882 34.9691C217.899 35.4521 217.67 35.4825 217.312 35.3744C216.861 35.236 216.642 34.8678 216.465 34.476C215.952 33.3446 215.87 32.1388 215.863 30.9229C215.863 30.9026 215.867 30.8857 215.87 30.8655C215.907 29.904 216.413 29.3658 217.39 29.251C217.718 29.2105 217.893 29.2645 217.882 29.6597C217.855 30.5649 217.875 31.4667 217.875 32.3718H217.872Z" fill="#FEFEFE"/>
<path d="M217.172 37.6747C216.277 37.3505 215.47 36.8438 214.633 36.4014C212.833 35.4523 211.05 34.4695 209.072 33.5406C210.814 33.3312 212.351 33.5643 213.81 34.2398C215.187 34.8781 216.277 35.8441 217.014 37.1715C217.1 37.3235 217.284 37.4653 217.161 37.6848L217.172 37.6713V37.6747Z" fill="#FEFEFE"/>
<path d="M217.083 27.0858C214.391 25.6774 211.801 24.3197 209.15 22.9281C211.552 22.3168 215.764 23.6914 217.083 27.0858Z" fill="#FEFEFE"/>
<path d="M222.446 38.6103C222.474 38.1239 222.805 37.7761 223.051 37.4012C224.096 35.8137 225.422 34.4458 226.594 32.953C227.031 32.3957 227.444 31.8215 227.94 31.1663C227.902 32.4565 227.584 33.5643 227.01 34.5978C226.006 36.398 224.503 37.668 222.658 38.5664C222.593 38.5968 222.511 38.59 222.436 38.5968L222.446 38.6103Z" fill="#FEFEFE"/>
<path d="M208.901 34.7363C211.289 35.8509 213.608 37.1006 215.938 38.3266C216.225 38.4786 216.512 38.634 216.932 38.8603C215.86 39.0291 214.948 38.938 214.056 38.7117C211.767 38.1341 209.97 36.8912 208.836 34.7971C208.856 34.7769 208.88 34.7566 208.901 34.7363Z" fill="#FEFEFE"/>
<path d="M208.754 24.2285C209.704 24.4649 210.554 24.9277 211.418 25.3634C213.198 26.2618 214.923 27.2683 216.734 28.1025C216.748 28.1093 216.755 28.1329 216.765 28.1498C214.114 28.724 210.862 27.3054 208.665 24.3163C208.692 24.2859 208.723 24.2589 208.75 24.2285H208.754Z" fill="#FEFEFE"/>
<path d="M222.508 36.2796C222.159 34.7125 222.528 33.4391 223.649 32.3854C224.544 31.541 225.64 30.9803 226.655 30.3014C226.788 30.2136 226.983 30.1359 227.072 30.2879C227.161 30.4467 227 30.6088 226.894 30.7405C225.951 31.8922 224.988 33.0305 224.059 34.1923C223.533 34.8476 223.058 35.5433 222.511 36.2796H222.508Z" fill="#FEFEFE"/>
<path d="M219.522 26.6941C219.054 24.0631 219.461 21.4826 219.351 18.9124C220.786 19.7838 221.193 24.6474 219.522 26.6941Z" fill="#FEFEFE"/>
<path d="M214.493 33.3683C213.865 33.0576 213.318 32.784 212.768 32.5138C212.618 32.4395 212.621 32.3078 212.621 32.1727C212.621 31.2101 212.632 30.2509 212.618 29.2883C212.611 28.9674 212.734 28.9269 212.997 29.0282C213.178 29.0958 213.363 29.1599 213.551 29.2005C214.493 29.4065 214.493 29.4065 214.493 30.386C214.493 31.3655 214.493 32.301 214.493 33.3683Z" fill="#FEFEFE"/>
<path d="M212.621 41.3799C212.621 40.9172 212.638 40.4545 212.614 39.9918C212.597 39.6641 212.741 39.5729 213.028 39.6405C213.461 39.7452 213.892 39.8668 214.326 39.9715C214.561 40.0289 214.486 40.2045 214.486 40.343C214.493 41.1502 214.483 41.9608 214.493 42.7714C214.496 43.0349 214.428 43.1295 214.138 43.1463C212.614 43.2308 212.614 43.2409 212.614 41.7278C212.614 41.613 212.614 41.4981 212.614 41.3799H212.621Z" fill="#FEFEFE"/>
<path d="M217.872 41.5996C217.872 41.6367 217.872 41.6772 217.872 41.7144C217.872 43.1971 217.872 43.187 216.376 43.1431C216.082 43.133 215.963 43.0755 215.973 42.7614C215.993 42.0116 215.986 41.2618 215.973 40.512C215.969 40.2621 216.031 40.154 216.311 40.0966C217.872 39.7757 217.869 39.7656 217.869 41.3125C217.869 41.407 217.869 41.505 217.869 41.5996H217.872Z" fill="#FEFEFE"/>
<path d="M217.852 48.0981C217.875 48.7838 217.469 49.1452 216.95 49.4154C216.325 49.743 215.628 49.8713 214.948 50.0301C214.148 50.2125 213.359 50.4084 212.632 50.8508C212.539 50.2429 212.847 49.8747 213.298 49.591C213.984 49.1587 214.774 48.9999 215.546 48.8074C216.314 48.6149 217.097 48.4697 217.852 48.1015V48.0981Z" fill="#FEFEFE"/>
<path d="M212.273 53.0799C212.246 52.3233 212.44 52.0227 213.165 51.7931C214.032 51.5161 214.938 51.3641 215.788 51.023C216.311 50.8136 216.84 50.6244 217.366 50.4252C217.561 50.3509 217.8 50.1685 217.951 50.3779C218.132 50.6312 217.831 50.7899 217.681 50.9352C217.168 51.4283 216.523 51.6985 215.853 51.9214C214.675 52.3132 213.434 52.5023 212.27 53.0799H212.273Z" fill="#FEFEFE"/>
<path d="M212.621 54.5425C213.52 54.0764 214.411 53.8096 215.296 53.5191C216.089 53.2557 216.888 52.999 217.629 52.6106C217.872 52.4822 218.039 52.5362 218.166 52.749C218.265 52.9145 218.271 53.0766 218.067 53.1915C216.744 53.9345 215.439 54.7181 213.875 54.8566C213.468 54.8938 213.065 54.8465 212.618 54.5425H212.621Z" fill="#FEFEFE"/>
<path d="M216.198 47.1726C215.142 47.794 213.971 48.0473 212.836 48.4189C212.696 48.4628 212.618 48.4054 212.621 48.25C212.621 47.9595 212.621 47.6724 212.621 47.382C212.621 47.1895 212.744 47.1692 212.894 47.1692C213.995 47.1692 215.098 47.1692 216.198 47.1692V47.1726Z" fill="#FEFEFE"/>
<path d="M216.789 55.073C216.581 55.6032 216.249 56.022 215.846 56.3868C215.645 56.5692 215.419 56.7212 215.139 56.7583C214.787 56.8056 214.507 56.6368 214.384 56.3395C214.237 55.995 214.61 55.9477 214.804 55.843C215.426 55.5019 216.157 55.4242 216.789 55.0696V55.073Z" fill="#FEFEFE"/>
<path d="M208.665 24.3163C208.631 24.2724 208.597 24.2251 208.562 24.1812C208.641 24.1407 208.709 24.1272 208.75 24.2285C208.723 24.2589 208.692 24.2859 208.665 24.3163Z" fill="#FEFEFE"/>
<path d="M208.836 34.8005C208.785 34.7836 208.74 34.7566 208.781 34.7026C208.788 34.6924 208.86 34.7262 208.901 34.7397C208.88 34.76 208.856 34.7802 208.836 34.8005Z" fill="#FEFEFE"/>
<path d="M222.435 38.5969C222.422 38.6205 222.408 38.6442 222.391 38.6678L222.368 38.6239C222.391 38.6171 222.418 38.6138 222.442 38.607L222.432 38.5935L222.435 38.5969Z" fill="#FEFEFE"/>
<path d="M217.162 37.6884C217.192 37.6411 217.226 37.6411 217.246 37.6917C217.253 37.7053 217.239 37.7289 217.236 37.7458C217.212 37.7221 217.192 37.6985 217.168 37.6749L217.158 37.6884H217.162Z" fill="#FEFEFE"/>
<path fill-rule="evenodd" clip-rule="evenodd" d="M3.13119 31.4865H7.44926L12.6863 17.4799H4.23803V14.0112H0.00195312V20.9486H7.07006L3.13119 31.4865ZM14.5211 23.4549H16.6802L18.8392 17.48H15.546L14.5211 23.4549ZM19.461 23.4549H21.62L23.779 17.48H20.4858L19.461 23.4549ZM35.1928 31.4866V20.9487H26.3688V17.48H39.5109V31.4866H35.1928ZM26.3688 31.4866V23.9345H30.6869V31.4866H26.3688ZM53.2751 24.9747C54.5699 24.4681 55.1643 23.4008 55.4068 22.0937C55.5638 21.2749 55.7208 20.4645 55.8778 19.6542L55.8778 19.6541L55.8789 19.6487C56.0187 18.9267 56.1586 18.2046 56.2985 17.4767H52.141L51.304 22.0397C51.222 22.4956 50.9795 22.9482 50.4397 22.9482L46.9039 17.48H41.9129L49.1996 28.0179H42.2921V31.4866H55.9739L52.0077 25.2956C52.1495 25.26 52.2888 25.2302 52.4271 25.2007C52.7086 25.1405 52.9865 25.0812 53.2751 24.9747ZM66.961 25.2416V20.9454H64.6687V17.4767H71.2791V25.2416H66.961ZM73.8414 31.4866H79.5636V31.49C82.7474 31.49 85.1217 28.5549 85.1217 25.5388V23.4312C85.1217 20.4151 82.7474 17.48 79.5636 17.48H73.8414V20.9487H78.1868C79.5362 20.9487 80.8036 22.4956 80.8036 23.7757V25.1909C80.8036 26.471 79.5362 28.0179 78.1868 28.0179H73.8414V31.4866ZM87.0146 31.4866V28.0179H90.5231V20.9487H87.4212V17.48H94.8411V31.4866H87.0146ZM106.31 20.9487V34.7695H110.628V17.48H104.017V20.9487H106.31ZM115.353 31.4866V20.9487H113.06V17.48H119.671V31.4866H115.353ZM127.279 27.67L127.631 31.4866V31.4832H131.491L130.951 17.4767H123.313V20.9454H126.903C126.93 21.6918 126.958 22.4652 126.958 23.2117C126.958 25.6941 124.638 27.241 122.37 27.5619V31.8851C124.85 31.8311 126.148 29.6458 127.091 27.67H127.279ZM140.694 31.4866V22.6037C140.694 21.4824 140.045 20.9487 138.942 20.9487H133.732V17.48H139.615C142.881 17.48 145.013 19.4289 145.013 22.6814V31.4866H140.694ZM153.567 24.8971L157.967 31.4866H162.822L158.476 25.4307C160.256 24.9511 161.281 23.9108 161.66 22.0971C161.81 21.314 161.967 20.5386 162.124 19.7635C162.278 19.0043 162.432 18.2455 162.579 17.48H158.421L157.612 22.0431C157.557 22.3876 157.315 22.9752 156.857 22.9752H156.802L152.375 17.48H147.384L151.784 22.4686C149.977 22.9482 148.682 24.6843 148.412 26.471C148.291 27.312 148.169 28.1454 148.048 28.9788C147.927 29.8122 147.806 30.6456 147.684 31.4866H151.842C152.057 29.8046 152.272 28.153 152.515 26.471C152.597 25.9103 152.918 25.0558 153.567 24.8971ZM3.76312 54.9779V45.0987H1.76465V43.4505H5.7616V54.9779H3.76312ZM8.64828 53.3296V54.9745H13.1132V43.447H8.89424V45.0952H11.1148V53.3296H8.64828ZM20.086 54.9778H17.9748L22.0606 45.0986H15.4434V40.2249H17.4419V43.4538H24.7936L20.086 54.9812V54.9778ZM32.9859 54.9813C37.1605 54.9813 38.872 51.1377 39.2273 47.5812V47.5845L39.6474 43.4572H37.6934L37.2937 47.6724C37.0272 50.5264 35.8042 53.3364 32.4734 53.3364H29.7849L29.4501 50.371H30.2734C32.1865 50.371 33.4949 49.0977 33.7169 47.2333C33.8622 46.0778 33.9871 44.9022 34.1104 43.741L34.1405 43.4572H32.1865L32.1608 43.7126L32.1608 43.7126L32.1608 43.7127L32.1608 43.7128L32.1608 43.7129C32.0567 44.7488 31.9509 45.8021 31.7868 46.8381C31.6296 47.7602 31.3632 49.0538 30.1641 49.0538H29.2998L28.5653 43.4538H26.6113L28.0563 54.9813H32.9859ZM49.3739 58.4905V45.0987H47.3754V43.4505H51.3723V58.4905H49.3739ZM55.8819 45.0987V54.9779H57.8804V43.4505H53.8834V45.0987H55.8819ZM69.1403 54.9779V47.6892C69.1403 45.9768 68.1633 45.0987 66.4518 45.0987H63.2098V54.9779H61.2113V43.4505H66.6533C69.2292 43.4505 71.1388 44.8116 71.1388 47.49V54.9779H69.1403ZM75.1805 54.9779H78.5557L78.5523 54.9745C82.5971 54.9745 85.0157 51.5734 85.0157 47.8176C85.0157 45.2473 83.417 43.1836 80.7079 43.1836C80.1306 43.1836 79.2424 43.3154 78.7538 43.6666V45.379C79.1091 44.896 80.175 44.7643 80.6874 44.7643C82.3306 44.7643 83.0412 46.4125 83.0412 47.8176C83.0412 50.7155 81.5107 53.3297 78.2892 53.3297H77.0013L76.0243 43.4505H74.0258L75.1805 54.9779ZM88.7909 49.6651V45.0987H86.7925V43.4505H90.7894V49.6651H88.7909ZM93.4542 53.3297V54.9745H103.002V53.3263H101.359V43.4471H93.4542V45.0953H99.3608V53.3297H93.4542ZM113.197 54.9779V45.0987H105.312V43.4505H115.195V54.9779H113.197ZM105.49 54.9779V48.0405H107.488V54.9779H105.49ZM133.626 45.0987V54.9779L133.629 54.9745H135.628V43.4471H123.726V45.0953H125.991V52.4954C125.991 52.9784 125.636 53.3297 125.147 53.3297H123.524V54.9779H125.39C126.896 54.9779 127.986 53.9917 127.986 52.4752V45.0987H133.626ZM151.233 47.5812C150.878 51.1377 149.17 54.9813 144.992 54.9813H140.062L138.617 43.4538H140.571L141.306 49.0538H142.174C143.373 49.0538 143.639 47.7602 143.796 46.8381C143.96 45.8025 144.066 44.7495 144.17 43.7139L144.196 43.4572H146.15L146.116 43.7789V43.7791C145.994 44.9279 145.871 46.0905 145.73 47.2333C145.508 49.0977 144.196 50.371 142.286 50.371H141.467L141.798 53.3364H144.486C147.817 53.3364 149.04 50.5264 149.307 47.6724L149.706 43.4572H151.66L151.237 47.5845L151.233 47.5812ZM160.027 54.9745V54.9779L160.024 54.9745H160.027ZM160.027 54.9745H162.022V47.6859C162.022 44.8994 160.335 43.4505 157.537 43.4505H153.54V45.0987H157.339C158.982 45.0987 160.027 45.9329 160.027 47.6014V54.9745Z" fill="#FEFEFE"/>
</svg>
