<svg width="17" height="18" viewBox="0 0 17 18" fill="none" xmlns="http://www.w3.org/2000/svg">
<path d="M15.3182 2.18188H1.68182C1.30526 2.18188 1 2.48715 1 2.8637V16.5001C1 16.8766 1.30526 17.1819 1.68182 17.1819H15.3182C15.6947 17.1819 16 16.8766 16 16.5001V2.8637C16 2.48715 15.6947 2.18188 15.3182 2.18188Z" stroke="#001950" stroke-linecap="round" stroke-linejoin="round"/>
<path d="M12.5898 0.818237V3.54551" stroke="#001950" stroke-linecap="round" stroke-linejoin="round"/>
<path d="M4.41016 0.818237V3.54551" stroke="#001950" stroke-linecap="round" stroke-linejoin="round"/>
<path d="M1 6.27283H16" stroke="#001950" stroke-linecap="round" stroke-linejoin="round"/>
<path d="M8.50071 10.8751C8.97141 10.8751 9.35298 10.4935 9.35298 10.0228C9.35298 9.55211 8.97141 9.17053 8.50071 9.17053C8.03001 9.17053 7.64844 9.55211 7.64844 10.0228C7.64844 10.4935 8.03001 10.8751 8.50071 10.8751Z" fill="#001950"/>
<path d="M12.2507 10.8751C12.7214 10.8751 13.103 10.4935 13.103 10.0228C13.103 9.55211 12.7214 9.17053 12.2507 9.17053C11.78 9.17053 11.3984 9.55211 11.3984 10.0228C11.3984 10.4935 11.78 10.8751 12.2507 10.8751Z" fill="#001950"/>
<path d="M4.75071 14.2841C5.22141 14.2841 5.60298 13.9026 5.60298 13.4319C5.60298 12.9612 5.22141 12.5796 4.75071 12.5796C4.28001 12.5796 3.89844 12.9612 3.89844 13.4319C3.89844 13.9026 4.28001 14.2841 4.75071 14.2841Z" fill="#001950"/>
<path d="M8.50071 14.2841C8.97141 14.2841 9.35298 13.9026 9.35298 13.4319C9.35298 12.9612 8.97141 12.5796 8.50071 12.5796C8.03001 12.5796 7.64844 12.9612 7.64844 13.4319C7.64844 13.9026 8.03001 14.2841 8.50071 14.2841Z" fill="#001950"/>
<path d="M12.2507 14.2841C12.7214 14.2841 13.103 13.9026 13.103 13.4319C13.103 12.9612 12.7214 12.5796 12.2507 12.5796C11.78 12.5796 11.3984 12.9612 11.3984 13.4319C11.3984 13.9026 11.78 14.2841 12.2507 14.2841Z" fill="#001950"/>
</svg>
