<svg width="18" height="18" viewBox="0 0 18 18" fill="none" xmlns="http://www.w3.org/2000/svg">
<path d="M8.83193 12.2354C10.7115 12.2354 12.2351 10.7117 12.2351 8.83217C12.2351 6.95263 10.7115 5.42896 8.83193 5.42896C6.95238 5.42896 5.42871 6.95263 5.42871 8.83217C5.42871 10.7117 6.95238 12.2354 8.83193 12.2354Z" stroke="white" stroke-linecap="round" stroke-linejoin="round"/>
<path d="M12.9156 0.664551H4.74792C2.49247 0.664551 0.664062 2.49296 0.664062 4.74841V12.9161C0.664062 15.1716 2.49247 17 4.74792 17H12.9156C15.1711 17 16.9995 15.1716 16.9995 12.9161V4.74841C16.9995 2.49296 15.1711 0.664551 12.9156 0.664551Z" stroke="white" stroke-linecap="round" stroke-linejoin="round"/>
<path d="M13.2566 5.25886C13.7265 5.25886 14.1074 4.87794 14.1074 4.40806C14.1074 3.93817 13.7265 3.55725 13.2566 3.55725C12.7867 3.55725 12.4058 3.93817 12.4058 4.40806C12.4058 4.87794 12.7867 5.25886 13.2566 5.25886Z" fill="white"/>
</svg>
