<svg width="23" height="20" viewBox="0 0 23 20" fill="none" xmlns="http://www.w3.org/2000/svg">
<path d="M11.399 10.9067L1.25774 7.92956C0.920449 7.83133 0.912953 7.34773 1.25774 7.24194L11.399 4.09854C11.4665 4.07588 11.5414 4.07588 11.6089 4.09854L21.7501 7.2495C22.0874 7.35528 22.0799 7.83133 21.7501 7.93711L11.6089 10.9143C11.5414 10.9369 11.474 10.9369 11.414 10.9143L11.399 10.9067Z" stroke="#001950" stroke-miterlimit="10"/>
<path d="M17.5832 9.15381V13.0906C17.5832 13.5289 17.3658 13.9445 17.006 14.1787C13.3333 16.4985 9.66804 16.4985 5.9953 14.1787C5.62803 13.9445 5.41066 13.5289 5.41816 13.0906V9.15381" stroke="#001950" stroke-miterlimit="10"/>
<path d="M2.93652 8.4209V13.7858" stroke="#001950" stroke-miterlimit="10"/>
</svg>
