<svg width="20" height="19" viewBox="0 0 20 19" fill="none" xmlns="http://www.w3.org/2000/svg">
<path d="M9.94642 1.45333C10.1492 1.84023 10.352 2.22713 10.5548 2.61402C11.0261 3.50506 11.5092 4.39609 11.9745 5.28713C12.0222 5.38092 12.0759 5.40437 12.1773 5.40437C13.7222 5.40437 15.2671 5.40437 16.812 5.40437H16.9671C16.985 5.46885 16.9373 5.50402 16.9134 5.5392C16.138 6.85816 15.3626 8.18299 14.5812 9.49609C14.5275 9.58402 14.5275 9.64264 14.5812 9.73058C15.3626 11.0554 16.144 12.3802 16.9194 13.6992C16.9433 13.7402 16.985 13.7813 16.985 13.834C15.3745 13.834 13.764 13.834 12.1534 13.834C12.052 13.834 12.0043 13.8751 11.9626 13.9571C11.3005 15.1823 10.6443 16.4075 9.98221 17.6326C9.96431 17.6678 9.95835 17.7147 9.8987 17.7382C9.7973 17.5506 9.69589 17.363 9.58853 17.1695C9.01589 16.1026 8.4373 15.0357 7.86466 13.9689C7.81098 13.8692 7.75133 13.834 7.638 13.834C6.08712 13.834 4.54221 13.834 2.99133 13.834C2.94361 13.834 2.878 13.8457 2.8601 13.8223C2.82431 13.7754 2.88396 13.7344 2.90782 13.6933C3.6773 12.3802 4.45273 11.0671 5.22817 9.75988C5.28782 9.65437 5.29379 9.58402 5.22817 9.47851C4.45273 8.17126 3.68326 6.85816 2.90782 5.54506C2.88396 5.50402 2.86607 5.46885 2.84221 5.42195C2.89589 5.38678 2.94958 5.40437 2.9973 5.40437C4.54817 5.40437 6.09309 5.40437 7.64396 5.40437C7.73344 5.40437 7.79905 5.39264 7.84677 5.29885C8.51484 4.03851 9.18888 2.77816 9.86291 1.51195C9.87484 1.49437 9.88081 1.47092 9.88677 1.44747C9.90467 1.44747 9.92256 1.44747 9.93449 1.44747L9.94642 1.45333Z" stroke="white" stroke-width="0.894737" stroke-miterlimit="10"/>
<path d="M18.9475 9.5001C18.9475 14.4416 14.9416 18.4475 10.0001 18.4475C5.05861 18.4475 1.05273 14.4416 1.05273 9.5001C1.05273 4.55861 5.05861 0.552734 10.0001 0.552734C14.9416 0.552734 18.9475 4.55861 18.9475 9.5001Z" stroke="white" stroke-width="0.894737" stroke-miterlimit="10"/>
</svg>
