<svg width="42" height="42" viewBox="0 0 42 42" fill="none" xmlns="http://www.w3.org/2000/svg">
<path d="M22.032 41C32.5075 41 40.9996 32.508 40.9996 22.0325C40.9996 11.557 32.5075 3.06494 22.032 3.06494C11.5565 3.06494 3.06445 11.557 3.06445 22.0325C3.06445 32.508 11.5565 41 22.032 41Z" fill="#F1D9BC"/>
<path d="M21 41C32.0457 41 41 32.0457 41 21C41 9.95431 32.0457 1 21 1C9.95431 1 1 9.95431 1 21C1 32.0457 9.95431 41 21 41Z" stroke="#E68715" stroke-miterlimit="10"/>
<path d="M23.7733 15L23.5493 13.8C23.4653 13.34 23.0827 13 22.6347 13H15.9333C15.42 13 15 13.45 15 14V29C15 29.55 15.42 30 15.9333 30C16.4467 30 16.8667 29.55 16.8667 29V23H22.0933L22.3173 24.2C22.4013 24.67 22.784 25 23.232 25H28.0667C28.58 25 29 24.55 29 24V16C29 15.45 28.58 15 28.0667 15H23.7733Z" fill="#E68715"/>
</svg>
