<svg width="42" height="42" viewBox="0 0 42 42" fill="none" xmlns="http://www.w3.org/2000/svg">
<path d="M22.032 41C32.5075 41 40.9996 32.508 40.9996 22.0325C40.9996 11.557 32.5075 3.06494 22.032 3.06494C11.5565 3.06494 3.06445 11.557 3.06445 22.0325C3.06445 32.508 11.5565 41 22.032 41Z" fill="#C5D1F2"/>
<path d="M21 41C32.0457 41 41 32.0457 41 21C41 9.95431 32.0457 1 21 1C9.95431 1 1 9.95431 1 21C1 32.0457 9.95431 41 21 41Z" stroke="#06184D" stroke-miterlimit="10"/>
<path d="M23.3073 16.8701C24.5699 17.8672 24.6938 19.7728 23.679 22.5988C23.384 23.5958 23.1126 24.587 22.8354 25.5781C22.5876 26.4867 22.3339 27.3893 22.0625 28.3156C22.0625 28.3274 22.0566 28.3392 22.0507 28.3569C21.797 29.0648 21.7085 29.6076 21.7911 29.9911C21.8147 30.1209 21.8737 30.2389 21.9563 30.3392C22.0448 30.4395 22.1628 30.5103 22.2867 30.5516C22.682 30.6931 23.2896 30.6813 24.1038 30.5044C24.7882 30.3569 25.2306 30.3923 25.4784 30.528C25.6967 30.6341 25.8265 30.8583 25.8147 31.0943C25.8029 31.289 25.7262 31.4719 25.6082 31.6194C25.1244 32.1622 24.4873 32.5516 23.7793 32.7344C20.4578 33.6607 18.1805 33.643 16.9592 32.6813C15.6967 31.6843 15.5728 29.7787 16.5876 26.9527C16.8826 25.9557 17.1539 24.9645 17.4312 23.9734C17.679 23.0648 17.9327 22.1622 18.2041 21.2359C18.2041 21.2241 18.21 21.2123 18.2159 21.1946C18.4696 20.4867 18.5581 19.9439 18.4755 19.5604C18.4519 19.4306 18.3929 19.3126 18.3103 19.2123C18.2218 19.1179 18.1097 19.0412 17.9799 18.9999C17.5846 18.8583 16.9769 18.8701 16.1687 19.0471C15.4843 19.1946 15.0418 19.1592 14.7941 19.0235C14.5758 18.9173 14.446 18.6931 14.4578 18.4572C14.4696 18.2625 14.5463 18.0796 14.6643 17.9321C15.148 17.3834 15.7852 16.9999 16.4932 16.817C19.8147 15.8908 22.092 15.9085 23.3132 16.8701H23.3073ZM22.4165 8.58105C24.1569 8.58105 25.5728 9.99108 25.5728 11.7315C25.5728 13.4719 24.1628 14.8878 22.4224 14.8878C20.682 14.8878 19.266 13.4778 19.266 11.7374C19.266 10.8996 19.5964 10.0973 20.1923 9.50731C20.7823 8.91734 21.5846 8.58105 22.4224 8.58105H22.4165Z" fill="#06184D"/>
</svg>
