<svg width="27" height="21" viewBox="0 0 27 21" fill="none" xmlns="http://www.w3.org/2000/svg">
<path d="M13.3862 10C10.6248 10 8.38623 7.76142 8.38623 5C8.38623 2.23858 10.6248 0 13.3862 0C16.1477 0 18.3862 2.23858 18.3862 5C18.3862 7.76142 16.1477 10 13.3862 10Z" fill="#EB1C25"/>
<path d="M21.5157 10.1656H26.2246V19.4604H21.5157V10.1656Z" stroke="#001950" stroke-miterlimit="10"/>
<path d="M21.5156 11.3555C21.5156 11.3555 17.9902 10.6916 15.569 12.1229C15.2607 12.304 14.9106 12.3859 14.5564 12.3859C13.4146 12.3773 10.9018 12.3859 9.41823 12.3945C8.77232 12.3945 8.25559 12.9377 8.25559 13.6059C8.25559 14.2742 8.78065 14.8174 9.42657 14.8174H14.9523C15.2898 14.8174 15.6149 14.9553 15.8566 15.2054L16.2024 15.5632" stroke="#001950" stroke-miterlimit="10"/>
<path d="M21.5156 17.7143L13.6813 19.7577C12.6687 20.0207 11.5977 19.844 10.7184 19.2706L1.48388 13.2437C0.90047 12.8643 0.742117 12.0581 1.13383 11.4718C1.46721 10.976 2.09646 10.795 2.62986 11.045L8.25142 13.6963" stroke="#001950" stroke-miterlimit="10"/>
<path d="M14.869 3.99221C14.894 3.88443 14.9065 3.77665 14.9065 3.66025C14.9065 2.87995 14.294 2.24622 13.5397 2.24622C12.7854 2.24622 12.1729 2.87995 12.1729 3.66025C12.1729 4.44056 12.7854 5.07429 13.5397 5.07429C14.294 5.07429 14.9065 5.70802 14.9065 6.48833C14.9065 7.26864 14.294 7.90237 13.5397 7.90237C12.7854 7.90237 12.1729 7.26864 12.1729 6.48833C12.1729 6.38918 12.1812 6.29433 12.202 6.2038" stroke="#F7F6F3" stroke-miterlimit="10"/>
<path d="M13.5356 2.2461V1.2373" stroke="#F7F6F3" stroke-miterlimit="10"/>
<path d="M13.5356 8.90687V7.89807" stroke="#F7F6F3" stroke-miterlimit="10"/>
</svg>
