<svg width="20" height="20" viewBox="0 0 20 20" fill="none" xmlns="http://www.w3.org/2000/svg">
<path d="M13.0321 10.2303C13.0321 10.2303 13.8514 3.17822 9.91162 2.18835" stroke="#001950" stroke-miterlimit="10" stroke-linecap="round" stroke-linejoin="round"/>
<path d="M9.91162 2.1831V1.28955" stroke="#001950" stroke-miterlimit="10" stroke-linecap="round" stroke-linejoin="round"/>
<path d="M9.91162 8.80176V17.8443C9.91162 18.481 10.4344 19 11.0758 19C11.7171 19 12.2399 18.481 12.2399 17.8443V16.9186" stroke="#001950" stroke-miterlimit="10" stroke-linecap="round" stroke-linejoin="round"/>
<path d="M5.08824 0C3.13723 0 1.55811 1.56773 1.55811 3.50464C1.55811 4.40354 1.89764 5.21683 2.45815 5.8375C3.88637 3.9969 5.98828 2.70205 8.40279 2.31146C7.91234 0.963108 6.61347 0 5.08824 0Z" fill="#EB1C25"/>
<path d="M12.9837 10.2303C15.1018 8.19173 17.1768 8.46996 19.2248 10.2303V10.3587C18.6535 5.75185 14.6976 2.18835 9.90632 2.18835C5.11504 2.18835 1.22921 5.6823 0.598633 10.2303C2.71671 8.19173 4.79167 8.46996 6.83969 10.2303H6.79118C8.90926 8.19173 10.9842 8.46996 13.0322 10.2303" stroke="#001950" stroke-miterlimit="10" stroke-linecap="square" stroke-linejoin="round"/>
<path d="M6.79138 10.2303C6.79138 10.2303 5.97217 3.17822 9.9119 2.18835" stroke="#001950" stroke-miterlimit="10" stroke-linecap="round" stroke-linejoin="round"/>
</svg>
