<svg width="18" height="23" viewBox="0 0 18 23" fill="none" xmlns="http://www.w3.org/2000/svg">
<path d="M11.9627 5.30411C11.0677 4.40905 9.60235 4.40905 8.70729 5.30411L8.3175 5.6939L7.92771 5.30411C7.03265 4.40905 5.56734 4.40905 4.67228 5.30411C3.77721 6.19918 3.77721 7.66448 4.67228 8.55955L5.06206 8.94934L8.3175 12.2048L11.5729 8.94934L11.9627 8.55955C12.8578 7.66448 12.8578 6.19918 11.9627 5.30411Z" fill="#EB1C25"/>
<path d="M4.29693 1.80334C3.66894 1.94771 3.0626 2.222 2.52123 2.63345C0.175297 4.43079 0.00927694 7.83782 2.03039 9.85171L2.83884 10.6602L8.03599 15.8573C8.10817 15.9295 8.18757 15.9945 8.26697 16.0594C9.07542 16.673 9.63123 17.5753 9.63123 18.593V18.7374C9.63123 20.542 11.0965 22.0001 12.8939 22.0001C14.6985 22.0001 16.1565 20.5347 16.1565 18.7374V16.5286" stroke="#001950" stroke-miterlimit="10"/>
<path d="M12.3309 1.80334C12.9589 1.94771 13.5652 2.222 14.1066 2.63345C16.4525 4.43079 16.6113 7.83782 14.5974 9.85171L13.789 10.6602L8.59182 15.8573C8.51964 15.9295 8.44024 15.9945 8.36084 16.0594" stroke="#001950" stroke-miterlimit="10"/>
<path d="M16.1636 16.3985C16.7496 16.3985 17.2247 15.9235 17.2247 15.3375C17.2247 14.7514 16.7496 14.2764 16.1636 14.2764C15.5776 14.2764 15.1025 14.7514 15.1025 15.3375C15.1025 15.9235 15.5776 16.3985 16.1636 16.3985Z" stroke="#001950" stroke-miterlimit="10"/>
<path d="M6.24826 1.12065L5.01609 1.04788C4.63802 1.02555 4.31344 1.31393 4.29111 1.69199L4.29069 1.69919C4.26836 2.07726 4.55674 2.40184 4.9348 2.42417L6.16698 2.49694C6.54504 2.51927 6.86962 2.23089 6.89195 1.85283L6.89238 1.84562C6.9147 1.46756 6.62632 1.14298 6.24826 1.12065Z" stroke="#001950" stroke-miterlimit="10"/>
<path d="M10.4651 2.48955L11.6973 2.41677C12.0754 2.39444 12.3637 2.06986 12.3414 1.6918L12.341 1.68459C12.3187 1.30653 11.9941 1.01815 11.616 1.04048L10.3838 1.11325C10.0058 1.13558 9.71739 1.46016 9.73972 1.83823L9.74015 1.84543C9.76247 2.22349 10.0871 2.51187 10.4651 2.48955Z" stroke="#001950" stroke-miterlimit="10"/>
</svg>
