<svg width="16" height="20" viewBox="0 0 16 20" fill="none" xmlns="http://www.w3.org/2000/svg">
<path fill-rule="evenodd" clip-rule="evenodd" d="M3.67676 8.63033C3.67676 7.48376 4.13223 6.38416 4.94298 5.57341C5.75372 4.76266 6.85333 4.30719 7.9999 4.30719C9.14647 4.30719 10.2461 4.76266 11.0568 5.57341C11.8676 6.38416 12.323 7.48376 12.323 8.63033C12.323 9.7769 11.8676 10.8765 11.0568 11.6873C10.2461 12.498 9.14647 12.9535 7.9999 12.9535C6.85333 12.9535 5.75372 12.498 4.94298 11.6873C4.13223 10.8765 3.67676 9.7769 3.67676 8.63033ZM7.9999 5.67239C7.21541 5.67239 6.46304 5.98403 5.90832 6.53875C5.3536 7.09347 5.04196 7.84584 5.04196 8.63033C5.04196 9.41483 5.3536 10.1672 5.90832 10.7219C6.46304 11.2766 7.21541 11.5883 7.9999 11.5883C8.78439 11.5883 9.53676 11.2766 10.0915 10.7219C10.6462 10.1672 10.9578 9.41483 10.9578 8.63033C10.9578 7.84584 10.6462 7.09347 10.0915 6.53875C9.53676 5.98403 8.78439 5.67239 7.9999 5.67239Z" fill="#F7F6F3"/>
<path fill-rule="evenodd" clip-rule="evenodd" d="M0.285819 7.59009C0.441386 5.7032 1.30083 3.9438 2.6935 2.66122C4.08618 1.37865 5.91024 0.666681 7.80354 0.666687H8.19671C10.09 0.666681 11.9141 1.37865 13.3067 2.66122C14.6994 3.9438 15.5589 5.7032 15.7144 7.59009C15.8875 9.69184 15.2382 11.7788 13.9033 13.4113L9.54098 18.7456C9.3543 18.9739 9.11922 19.1579 8.85273 19.2842C8.58625 19.4105 8.29503 19.476 8.00013 19.476C7.70522 19.476 7.414 19.4105 7.14752 19.2842C6.88103 19.1579 6.64595 18.9739 6.45927 18.7456L2.09699 13.4113C0.761926 11.7788 0.112607 9.69186 0.285819 7.59009ZM7.80354 2.03189C6.25311 2.03212 4.75944 2.61531 3.61903 3.66569C2.47861 4.71607 1.77483 6.15685 1.64738 7.70203C1.50322 9.45118 2.04355 11.188 3.15457 12.5467L7.51684 17.8819C7.57548 17.9537 7.64935 18.0115 7.73309 18.0512C7.81683 18.0909 7.90835 18.1115 8.00104 18.1115C8.09372 18.1115 8.18524 18.0909 8.26898 18.0512C8.35272 18.0115 8.42659 17.9537 8.48523 17.8819L12.8475 12.5467C13.9579 11.1877 14.4975 9.45094 14.3529 7.70203C14.2254 6.15669 13.5215 4.71579 12.3809 3.66538C11.2403 2.61498 9.74639 2.0319 8.1958 2.03189H7.80354Z" fill="#F7F6F3"/>
</svg>
