<svg width="20" height="20" viewBox="0 0 20 20" fill="none" xmlns="http://www.w3.org/2000/svg">
<path d="M19.2858 10C19.2858 12.4627 18.3075 14.8246 16.5661 16.566C14.8247 18.3074 12.4628 19.2857 10.0001 19.2857C7.53735 19.2857 5.17549 18.3074 3.43408 16.566C1.69267 14.8246 0.714355 12.4627 0.714355 10M19.2858 10C19.2858 7.53728 18.3075 5.17543 16.5661 3.43402C14.8247 1.69261 12.4628 0.714294 10.0001 0.714294C7.53735 0.714294 5.17549 1.69261 3.43408 3.43402C1.69267 5.17543 0.714355 7.53728 0.714355 10M19.2858 10H0.714355" stroke="#F7F6F3" stroke-linecap="round" stroke-linejoin="round"/>
<path d="M13.5716 10C13.3961 13.3957 12.1454 16.6476 10.0001 19.2857C7.85488 16.6476 6.60414 13.3957 6.42871 10C6.60414 6.60431 7.85488 3.35237 10.0001 0.714294C12.1454 3.35237 13.3961 6.60431 13.5716 10Z" stroke="#F7F6F3" stroke-linecap="round" stroke-linejoin="round"/>
</svg>
