<svg width="20" height="21" viewBox="0 0 20 21" fill="none" xmlns="http://www.w3.org/2000/svg">
<path d="M14.5662 12.322C14.3668 12.2223 13.0707 11.6241 12.8713 11.5244C12.6719 11.4247 12.4725 11.4247 12.2731 11.6241C12.0737 11.8235 11.6749 12.4217 11.4755 12.6211C11.3758 12.8205 11.1765 12.8205 10.9771 12.7208C10.2792 12.4217 9.58128 12.0229 8.98309 11.5244C8.4846 11.0259 7.98611 10.4278 7.58732 9.82957C7.48762 9.63017 7.58732 9.43077 7.68702 9.33108C7.78671 9.23138 7.88641 9.03198 8.08581 8.93228C8.18551 8.83259 8.2852 8.63319 8.2852 8.53349C8.3849 8.43379 8.3849 8.2344 8.2852 8.1347C8.18551 8.035 7.68702 6.83862 7.48762 6.34013C7.38792 5.64224 7.18852 5.64224 6.98913 5.64224H6.49064C6.29124 5.64224 5.99215 5.84164 5.89245 5.94134C5.29426 6.53953 4.99516 7.23741 4.99516 8.035C5.09486 8.93228 5.39396 9.82957 5.99215 10.6272C7.08883 12.2223 8.4846 13.5184 10.1795 14.316C10.678 14.5154 11.0768 14.7148 11.5752 14.8145C12.0737 15.0139 12.5722 15.0139 13.1704 14.9142C13.8683 14.8145 14.4665 14.316 14.8653 13.7178C15.0647 13.319 15.0647 12.9202 14.965 12.5214L14.5662 12.322ZM17.0586 3.24949C13.1704 -0.638744 6.88943 -0.638744 3.0012 3.24949C-0.189143 6.43983 -0.787332 11.325 1.40603 15.2133L0.0102539 20.2979L5.29426 18.9021C6.78973 19.6997 8.3849 20.0985 9.98007 20.0985C15.4635 20.0985 19.8502 15.7118 19.8502 10.2284C19.9499 7.63621 18.8532 5.14375 17.0586 3.24949ZM14.3668 17.2072C13.0707 18.0048 11.5752 18.5033 9.98007 18.5033C8.4846 18.5033 7.08883 18.1045 5.79275 17.4066L5.49365 17.2072L2.40301 18.0048L3.2006 15.0139L3.0012 14.7148C0.608443 10.7268 1.80482 5.74194 5.69305 3.24949C9.58128 0.757031 14.5662 2.05311 16.9589 5.84164C19.3517 9.72987 18.255 14.8145 14.3668 17.2072Z" fill="#F7F6F3"/>
</svg>
