<svg width="21" height="21" viewBox="0 0 21 21" fill="none" xmlns="http://www.w3.org/2000/svg">
<path d="M18.1796 17.5153L13.4596 12.7953C14.5938 11.4336 15.1594 9.68708 15.0387 7.919C14.9181 6.15092 14.1204 4.49743 12.8116 3.30251C11.5028 2.10758 9.78379 1.46323 8.01205 1.50349C6.24031 1.54375 4.5523 2.26551 3.29916 3.51865C2.04603 4.77178 1.32426 6.45979 1.28401 8.23153C1.24375 10.0033 1.8881 11.7223 3.08302 13.0311C4.27795 14.3398 5.93143 15.1375 7.69952 15.2582C9.4676 15.3789 11.2141 14.8133 12.5758 13.6791L17.2958 18.3991L18.1796 17.5153ZM2.55458 8.39906C2.55458 7.28654 2.88448 6.199 3.50256 5.27398C4.12064 4.34895 4.99915 3.62798 6.02698 3.20224C7.05482 2.77649 8.18582 2.6651 9.27696 2.88214C10.3681 3.09918 11.3704 3.63491 12.1571 4.42158C12.9437 5.20825 13.4795 6.21053 13.6965 7.30168C13.9135 8.39282 13.8021 9.52382 13.3764 10.5517C12.9507 11.5795 12.2297 12.458 11.3047 13.0761C10.3796 13.6942 9.2921 14.0241 8.17958 14.0241C6.68824 14.0224 5.25846 13.4292 4.20393 12.3747C3.14939 11.3202 2.55623 9.89039 2.55458 8.39906Z" fill="#001950"/>
</svg>
