<svg width="12" height="12" viewBox="0 0 12 12" fill="none" xmlns="http://www.w3.org/2000/svg">
<path d="M3.73831 0.384521H8.26139C9.98447 0.384521 11.3845 1.78452 11.3845 3.5076V8.03068C11.3845 8.85897 11.0554 9.65333 10.4697 10.239C9.88405 10.8247 9.08968 11.1538 8.26139 11.1538H3.73831C2.01523 11.1538 0.615234 9.75375 0.615234 8.03068V3.5076C0.615234 2.67931 0.944272 1.88494 1.52996 1.29925C2.11565 0.713559 2.91002 0.384521 3.73831 0.384521ZM3.63062 1.46144C3.11651 1.46144 2.62345 1.66567 2.25992 2.02921C1.89639 2.39274 1.69216 2.88579 1.69216 3.39991V8.13837C1.69216 9.20991 2.55908 10.0768 3.63062 10.0768H8.36908C8.88319 10.0768 9.37625 9.8726 9.73978 9.50907C10.1033 9.14554 10.3075 8.65248 10.3075 8.13837V3.39991C10.3075 2.32837 9.44062 1.46144 8.36908 1.46144H3.63062ZM8.82677 2.26914C9.00528 2.26914 9.17649 2.34005 9.30271 2.46628C9.42894 2.5925 9.49985 2.7637 9.49985 2.94221C9.49985 3.12072 9.42894 3.29192 9.30271 3.41815C9.17649 3.54438 9.00528 3.61529 8.82677 3.61529C8.64826 3.61529 8.47706 3.54438 8.35084 3.41815C8.22461 3.29192 8.1537 3.12072 8.1537 2.94221C8.1537 2.7637 8.22461 2.5925 8.35084 2.46628C8.47706 2.34005 8.64826 2.26914 8.82677 2.26914ZM5.99985 3.07683C6.71389 3.07683 7.39869 3.36048 7.9036 3.86539C8.4085 4.37029 8.69216 5.05509 8.69216 5.76914C8.69216 6.48318 8.4085 7.16798 7.9036 7.67289C7.39869 8.17779 6.71389 8.46144 5.99985 8.46144C5.28581 8.46144 4.60101 8.17779 4.0961 7.67289C3.5912 7.16798 3.30754 6.48318 3.30754 5.76914C3.30754 5.05509 3.5912 4.37029 4.0961 3.86539C4.60101 3.36048 5.28581 3.07683 5.99985 3.07683ZM5.99985 4.15375C5.57142 4.15375 5.16054 4.32394 4.8576 4.62689C4.55466 4.92983 4.38447 5.34071 4.38447 5.76914C4.38447 6.19756 4.55466 6.60844 4.8576 6.91139C5.16054 7.21433 5.57142 7.38452 5.99985 7.38452C6.42828 7.38452 6.83916 7.21433 7.1421 6.91139C7.44504 6.60844 7.61523 6.19756 7.61523 5.76914C7.61523 5.34071 7.44504 4.92983 7.1421 4.62689C6.83916 4.32394 6.42828 4.15375 5.99985 4.15375Z" fill="#C3D3F6"/>
</svg>
