<svg width="12" height="12" viewBox="0 0 12 12" fill="none" xmlns="http://www.w3.org/2000/svg">
<path d="M1.60854 0.384521C1.28469 0.386828 0.974755 0.516502 0.745751 0.745507C0.516746 0.974511 0.387073 1.28444 0.384766 1.6083V9.92998C0.384766 10.5991 0.939381 11.1538 1.60854 11.1538H9.93022C10.5994 11.1538 11.154 10.5991 11.154 9.92998V1.6083C11.154 0.939137 10.5994 0.384521 9.93022 0.384521H1.60854ZM1.60854 1.36354H9.93022C10.0697 1.36354 10.175 1.46879 10.175 1.6083V9.92998C10.1756 9.9623 10.1698 9.99443 10.1577 10.0244C10.1456 10.0544 10.1276 10.0817 10.1048 10.1045C10.0819 10.1274 10.0547 10.1454 10.0247 10.1575C9.99467 10.1695 9.96255 10.1754 9.93022 10.1747H1.60854C1.5762 10.1755 1.54404 10.1696 1.51401 10.1576C1.48399 10.1456 1.45671 10.1276 1.43383 10.1047C1.41096 10.0818 1.39296 10.0545 1.38092 10.0245C1.36888 9.99448 1.36305 9.96232 1.36379 9.92998V1.6083C1.36379 1.46879 1.46903 1.36354 1.60854 1.36354ZM3.04672 2.20501C2.93455 2.2023 2.82296 2.22206 2.71853 2.26312C2.6141 2.30418 2.51894 2.36571 2.43864 2.44409C2.35834 2.52248 2.29454 2.61613 2.25097 2.71954C2.2074 2.82295 2.18496 2.93402 2.18496 3.04623C2.18496 3.15845 2.2074 3.26952 2.25097 3.37293C2.29454 3.47634 2.35834 3.56999 2.43864 3.64838C2.51894 3.72676 2.6141 3.78829 2.71853 3.82935C2.82296 3.87041 2.93455 3.89017 3.04672 3.88746C3.26632 3.88216 3.47513 3.79121 3.62857 3.63402C3.78201 3.47684 3.8679 3.26589 3.8679 3.04623C3.8679 2.82658 3.78201 2.61563 3.62857 2.45845C3.47513 2.30126 3.26632 2.21031 3.04672 2.20501ZM7.467 4.43816C6.76554 4.43816 6.29903 4.82242 6.10616 5.1876H6.07533V4.54536H4.69833V9.19571H6.13651V6.90089C6.13651 6.29487 6.25693 5.70795 7.00833 5.70795C7.74847 5.70795 7.75826 6.39228 7.75826 6.93172V9.19571H9.19595V6.64096C9.19595 5.39075 8.92966 4.43816 7.467 4.43816ZM2.34281 4.54536V9.19571H3.79616V4.54536H2.34281Z" fill="#C3D3F6"/>
</svg>
