<svg width="17" height="23" viewBox="0 0 17 23" fill="none" xmlns="http://www.w3.org/2000/svg">
<path d="M12.9997 13.9279L15.0647 21.712L12.0125 20.1888L10.1063 23L8.06396 15.3839L9.86804 15.1487L10.9573 13.9279H12.9997Z" fill="#EB1C25"/>
<path d="M4.68272 13.9279L2.61768 21.712L5.68121 20.1888L7.57606 23L9.61841 15.3839L7.81433 15.1487L6.73642 13.9279H4.68272Z" fill="#EB1C25"/>
<path d="M10.3785 1.86522C10.7756 2.54843 11.5926 2.87324 12.3641 2.67163C13.6803 2.33563 14.8717 3.51165 14.5313 4.81088C14.3271 5.57249 14.6675 6.36771 15.3482 6.77092C16.5169 7.44293 16.5169 9.11177 15.3482 9.79498C14.6561 10.187 14.3271 10.9934 14.5313 11.755C14.8717 13.0542 13.6803 14.2303 12.3641 13.8943C11.5926 13.6927 10.787 14.0287 10.3785 14.7007C9.69773 15.8543 8.00712 15.8543 7.31499 14.7007C6.91786 14.0175 6.10092 13.6927 5.32937 13.8943C4.01318 14.2303 2.82181 13.0542 3.1622 11.755C3.36644 10.9934 3.02604 10.1982 2.34526 9.79498C1.17658 9.12297 1.17658 7.45413 2.34526 6.77092C3.03739 6.37891 3.36644 5.57249 3.1622 4.81088C2.82181 3.51165 4.01318 2.33563 5.32937 2.67163C6.10092 2.87324 6.90652 2.53723 7.31499 1.86522C7.99577 0.711594 9.68639 0.711594 10.3785 1.86522Z" stroke="#001950" stroke-miterlimit="10"/>
<path d="M8.84659 11.5757C10.6889 11.5757 12.1824 10.1015 12.1824 8.28286C12.1824 6.46426 10.6889 4.98999 8.84659 4.98999C7.00425 4.98999 5.51074 6.46426 5.51074 8.28286C5.51074 10.1015 7.00425 11.5757 8.84659 11.5757Z" stroke="#001950" stroke-miterlimit="10"/>
</svg>
