<svg width="22" height="23" viewBox="0 0 22 23" fill="none" xmlns="http://www.w3.org/2000/svg">
<path d="M4.04785 4.99329H9.20937" stroke="#001950" stroke-miterlimit="10"/>
<path d="M4.04785 9.02368H13.0572" stroke="#001950" stroke-miterlimit="10"/>
<path d="M4.04785 13.5153H13.0572" stroke="#001950" stroke-miterlimit="10"/>
<path d="M4.04785 18.0067H13.0572" stroke="#001950" stroke-miterlimit="10"/>
<path d="M16.0652 1.37183H1.04004V21.6282H16.0652V1.37183Z" stroke="#001950" stroke-miterlimit="10"/>
<path d="M16.2246 10C18.986 10 21.2246 7.76142 21.2246 5C21.2246 2.23858 18.986 0 16.2246 0C13.4632 0 11.2246 2.23858 11.2246 5C11.2246 7.76142 13.4632 10 16.2246 10Z" fill="#EB1C25"/>
<path d="M18.2246 4.3303H16.8973V3H15.5549V4.3303H14.2246V5.67273H15.5549V7H16.8973V5.67273H18.2246V4.3303Z" fill="white"/>
</svg>
