<svg width="69" height="10" viewBox="0 0 69 10" fill="none" xmlns="http://www.w3.org/2000/svg">
<path fill-rule="evenodd" clip-rule="evenodd" d="M13.4741 0.395996H13.469C13.0519 0.395996 12.7139 0.734067 12.7139 1.1511V1.1562C12.7139 1.57323 13.0519 1.9113 13.469 1.9113H13.4741C13.8911 1.9113 14.2292 1.57323 14.2292 1.1562V1.1511C14.2292 0.734067 13.8911 0.395996 13.4741 0.395996ZM4.23469 8.25316V3.20724H6.95408V1.69193H0V3.20724H2.71939V8.25316H4.23469ZM39.301 5.51337L37.9132 6.595V8.25316H36.3826V1.69704H37.9132V4.65112L41.7092 1.69704H44.199L40.5153 4.56439L44.1735 8.25316H42.0204L39.301 5.51337ZM23.898 3.71235L28.9796 8.25316H30.6224V1.69704H29.1071V6.345L23.898 1.69704H22.3877V8.25316H23.898V3.71235ZM51.1833 6.74318H55.8261V8.25339H49.668V6.74318V5.73298V4.21767V3.20747V1.69727H51.1833H55.8261V3.20747H51.1833V4.21767H55.8261V5.73298H51.1833V6.74318ZM63.1173 6.52871L65.2551 6.5134L66.8979 8.2583H69L67.0561 6.19707C67.7857 5.78891 68.2908 5.0134 68.2908 4.12054C68.2908 2.80422 67.2194 1.73279 65.903 1.73279H61.5867V8.2583H63.1173V6.53381V6.52871ZM63.1173 3.2583H65.903C66.3775 3.2583 66.7602 3.64095 66.7602 4.11544C66.7602 4.58993 66.3775 4.97259 65.9081 4.97259L65.8775 4.94197L65.8469 4.97259L63.1122 4.99299V3.2532L63.1173 3.2583ZM14.3465 5.72257V7.25318C15.6016 7.25318 16.622 6.23277 16.622 4.97767C16.622 3.72257 15.6016 2.70216 14.3465 2.70216V4.23277C14.7547 4.23277 15.0914 4.56951 15.0914 4.97767C15.0914 5.38583 14.7598 5.72257 14.3465 5.72257ZM13.469 8.03887H13.4741C13.8911 8.03887 14.2292 8.37695 14.2292 8.79398V8.79908C14.2292 9.21611 13.8911 9.55418 13.4741 9.55418H13.469C13.0519 9.55418 12.7139 9.21611 12.7139 8.79908V8.79398C12.7139 8.37695 13.0519 8.03887 13.469 8.03887Z" fill="#001950"/>
</svg>
