<svg width="19" height="13" viewBox="0 0 19 13" fill="none" xmlns="http://www.w3.org/2000/svg">
<path d="M0.708496 6.88897V5.65783C0.708496 3.14079 0.708496 1.88183 1.49534 1.07238C2.28306 0.262059 3.52289 0.227281 6.00168 0.156856C7.17543 0.123817 8.37526 0.100342 9.40295 0.100342C10.4306 0.100342 11.6296 0.123817 12.8042 0.156856C15.283 0.227281 16.5228 0.262059 17.3097 1.07238C18.0965 1.8827 18.0974 3.14166 18.0974 5.65783V6.8881C18.0974 9.40601 18.0974 10.6641 17.3105 11.4744C16.5228 12.2839 15.2839 12.3195 12.8042 12.3891C11.6305 12.423 10.4306 12.4465 9.40295 12.4465C8.37526 12.4465 7.1763 12.423 6.00168 12.3891C3.52289 12.3195 2.28306 12.2847 1.49534 11.4744C0.707627 10.6641 0.708496 9.40514 0.708496 6.88897Z" fill="#001950"/>
<path d="M12 6.22607L8 8.72607V3.72607L12 6.22607Z" fill="#C3D3F6"/>
</svg>
